<svg width="96" height="96" viewBox="0 0 96 96" fill="none" xmlns="http://www.w3.org/2000/svg">
<circle cx="48" cy="48" r="48" fill="#BF83FF"/>
<mask id="mask0_1_2294" style="mask-type:alpha" maskUnits="userSpaceOnUse" x="0" y="0" width="96" height="96">
<circle cx="48" cy="48" r="48" fill="#C4C4C4"/>
</mask>
<g mask="url(#mask0_1_2294)">
<path fill-rule="evenodd" clip-rule="evenodd" d="M48 24.8507C38.3601 24.8507 30.5455 32.6654 30.5455 42.3052V44.0818C28.7765 44.3786 27.4286 45.9171 27.4286 47.7704V52.0449C27.4286 53.9358 28.8316 55.4989 30.6534 55.75C31.3346 61.8712 35.1814 67.0369 40.5195 69.5727V75.3107C27.3174 76.0213 16.8312 86.9515 16.8312 100.331H79.1688C79.1688 86.9515 68.6826 76.0213 55.4805 75.3107V69.5727C60.8187 67.0369 64.6654 61.8712 65.3466 55.75C67.1684 55.4989 68.5714 53.9358 68.5714 52.0449V47.7704C68.5714 45.9171 67.2235 44.3786 65.4546 44.0818V42.3052C65.4546 32.6654 57.6399 24.8507 48 24.8507Z" fill="#D0C6AC"/>
<mask id="mask1_1_2294" style="mask-type:luminance" maskUnits="userSpaceOnUse" x="16" y="24" width="64" height="77">
<path fill-rule="evenodd" clip-rule="evenodd" d="M48 24.8507C38.3601 24.8507 30.5455 32.6654 30.5455 42.3052V44.0818C28.7765 44.3786 27.4286 45.9171 27.4286 47.7704V52.0449C27.4286 53.9358 28.8316 55.4989 30.6534 55.75C31.3346 61.8712 35.1814 67.0369 40.5195 69.5727V75.3107C27.3174 76.0213 16.8312 86.9515 16.8312 100.331H79.1688C79.1688 86.9515 68.6826 76.0213 55.4805 75.3107V69.5727C60.8187 67.0369 64.6654 61.8712 65.3466 55.75C67.1684 55.4989 68.5714 53.9358 68.5714 52.0449V47.7704C68.5714 45.9171 67.2235 44.3786 65.4546 44.0818V42.3052C65.4546 32.6654 57.6399 24.8507 48 24.8507Z" fill="white"/>
</mask>
<g mask="url(#mask1_1_2294)">
<rect width="82.2857" height="75.4801" transform="translate(6.85715 24.8507)" fill="#FFCCD7"/>
<rect x="6.85715" y="24.8507" width="82.2857" height="75.4801" fill="#FFCCD7"/>
<path fill-rule="evenodd" clip-rule="evenodd" d="M30.5455 53.7979V56.2727C30.5455 65.9125 38.3601 73.7272 48 73.7272C57.6399 73.7272 65.4546 65.9125 65.4546 56.2727V53.7979C65.4546 63.4378 57.6399 71.2524 48 71.2524C38.3601 71.2524 30.5455 63.4378 30.5455 53.7979Z" fill="black" fill-opacity="0.1"/>
</g>
<path fill-rule="evenodd" clip-rule="evenodd" d="M48.1559 86.6662C56.6768 86.6662 63.5844 82.5833 63.5844 77.5467C63.5844 77.4073 63.5791 77.2685 63.5686 77.1305C72.7189 80.8578 79.1688 89.8411 79.1688 100.331H16.8312C16.8312 89.718 23.4333 80.6473 32.7544 77.0016C32.7364 77.1819 32.7273 77.3637 32.7273 77.5467C32.7273 82.5833 39.6349 86.6662 48.1559 86.6662Z" fill="#6223A9"/>
<mask id="mask2_1_2294" style="mask-type:luminance" maskUnits="userSpaceOnUse" x="16" y="77" width="64" height="24">
<path fill-rule="evenodd" clip-rule="evenodd" d="M48.1559 86.6662C56.6768 86.6662 63.5844 82.5833 63.5844 77.5467C63.5844 77.4073 63.5791 77.2685 63.5686 77.1305C72.7189 80.8578 79.1688 89.8411 79.1688 100.331H16.8312C16.8312 89.718 23.4333 80.6473 32.7544 77.0016C32.7364 77.1819 32.7273 77.3637 32.7273 77.5467C32.7273 82.5833 39.6349 86.6662 48.1559 86.6662Z" fill="white"/>
</mask>
<g mask="url(#mask2_1_2294)">
<rect x="6.85715" y="66.3029" width="82.2857" height="34.0279" fill="#6223A9"/>
</g>
<path fill-rule="evenodd" clip-rule="evenodd" d="M43.6364 59.8067C43.6364 62.1986 45.59 64.1375 48 64.1375C50.41 64.1375 52.3636 62.1986 52.3636 59.8067" fill="#0C092A"/>
<g opacity="0.3">
<path fill-rule="evenodd" clip-rule="evenodd" d="M44.2598 53.9291C44.2598 55.2958 45.9343 56.4038 48 56.4038C50.0657 56.4038 51.7403 55.2958 51.7403 53.9291" fill="#0C092A"/>
</g>
<ellipse cx="39.8961" cy="48.3609" rx="1.87013" ry="1.85607" fill="#0C092A"/>
<ellipse cx="56.1039" cy="48.3609" rx="1.87013" ry="1.85607" fill="#0C092A"/>
<path d="M35.4172 44.3885C36.6374 42.6844 39.9827 41.7288 42.8643 42.4311C43.1986 42.5126 43.5362 42.3097 43.6183 41.9778C43.7004 41.646 43.496 41.3109 43.1616 41.2294C39.8151 40.4138 35.9414 41.5203 34.4009 43.6717C34.2015 43.9502 34.2673 44.3364 34.5479 44.5344C34.8286 44.7323 35.2177 44.667 35.4172 44.3885Z" fill="#0C092A"/>
<path d="M60.5829 44.3885C59.3626 42.6844 56.0174 41.7288 53.1358 42.4311C52.8014 42.5126 52.4638 42.3097 52.3817 41.9778C52.2996 41.646 52.5041 41.3109 52.8384 41.2294C56.1849 40.4138 60.0586 41.5203 61.5991 43.6717C61.7986 43.9502 61.7327 44.3364 61.4521 44.5344C61.1715 44.7323 60.7823 44.667 60.5829 44.3885Z" fill="#0C092A"/>
<mask id="mask3_1_2294" style="mask-type:luminance" maskUnits="userSpaceOnUse" x="6" y="13" width="84" height="88">
<rect x="6.85715" y="13.7143" width="82.2857" height="86.6165" fill="white"/>
</mask>
<g mask="url(#mask3_1_2294)">
<path fill-rule="evenodd" clip-rule="evenodd" d="M19.0131 58.5693C18.8207 49.0303 27.8398 29.1181 31.1689 25.16C33.6385 22.224 40.4246 19.7622 48.0001 19.9012C55.5757 20.0402 62.6064 21.6991 65.143 24.8507C68.9842 29.6232 76.9462 47.7665 76.9872 58.5693C77.0163 66.241 74.0144 73.9313 69.8183 74.3459C67.4492 74.5799 64.4396 74.2761 60.8234 73.911C59.1684 73.7439 57.3864 73.564 55.4805 73.417V69.5727C61.3776 66.7713 65.4546 60.7607 65.4546 53.7979V45.1324C62.1793 43.3416 59.3909 41.1795 57.0679 38.9826C58.1138 40.913 59.31 42.6659 60.6588 43.9908C51.1265 41.3364 44.537 35.9006 40.588 31.6387C38.7726 35.066 35.521 40.0782 30.5455 43.8963V53.7979C30.5455 60.7607 34.6225 66.7713 40.5195 69.5727V73.6485C38.3523 73.943 36.3382 74.3166 34.4846 74.6604L34.4846 74.6604C31.1032 75.2877 28.2563 75.8158 25.9901 75.5833C21.557 75.1287 19.1677 66.2397 19.0131 58.5693Z" fill="#E6E6E6"/>
<mask id="mask4_1_2294" style="mask-type:luminance" maskUnits="userSpaceOnUse" x="19" y="19" width="58" height="57">
<path fill-rule="evenodd" clip-rule="evenodd" d="M19.0131 58.5693C18.8207 49.0303 27.8398 29.1181 31.1689 25.16C33.6385 22.224 40.4246 19.7622 48.0001 19.9012C55.5757 20.0402 62.6064 21.6991 65.143 24.8507C68.9842 29.6232 76.9462 47.7665 76.9872 58.5693C77.0163 66.241 74.0144 73.9313 69.8183 74.3459C67.4492 74.5799 64.4396 74.2761 60.8234 73.911C59.1684 73.7439 57.3864 73.564 55.4805 73.417V69.5727C61.3776 66.7713 65.4546 60.7607 65.4546 53.7979V45.1324C62.1793 43.3416 59.3909 41.1795 57.0679 38.9826C58.1138 40.913 59.31 42.6659 60.6588 43.9908C51.1265 41.3364 44.537 35.9006 40.588 31.6387C38.7726 35.066 35.521 40.0782 30.5455 43.8963V53.7979C30.5455 60.7607 34.6225 66.7713 40.5195 69.5727V73.6485C38.3523 73.943 36.3382 74.3166 34.4846 74.6604L34.4846 74.6604C31.1032 75.2877 28.2563 75.8158 25.9901 75.5833C21.557 75.1287 19.1677 66.2397 19.0131 58.5693Z" fill="white"/>
</mask>
<g mask="url(#mask4_1_2294)">
<rect x="6.54547" y="13.7143" width="82.9091" height="86.6165" fill="#0C092A"/>
</g>
</g>
</g>
</svg>
