<svg width="56" height="56" viewBox="0 0 56 56" fill="none" xmlns="http://www.w3.org/2000/svg">
<circle cx="28" cy="28" r="28" fill="#C9F2E9"/>
<mask id="mask0_1_2582" style="mask-type:alpha" maskUnits="userSpaceOnUse" x="0" y="0" width="56" height="56">
<circle cx="28" cy="28" r="28" fill="#C4C4C4"/>
</mask>
<g mask="url(#mask0_1_2582)">
<path fill-rule="evenodd" clip-rule="evenodd" d="M28.0001 14.4962C22.3768 14.4962 17.8182 19.0548 17.8182 24.6781V25.7144C16.7863 25.8875 16.0001 26.7849 16.0001 27.866V30.3595C16.0001 31.4625 16.8185 32.3743 17.8812 32.5208C18.2786 36.0915 20.5225 39.1048 23.6364 40.5841V43.9312C15.9352 44.3458 9.81824 50.7217 9.81824 58.5263H46.1819C46.1819 50.7217 40.0649 44.3458 32.3637 43.9312V40.5841C35.4776 39.1048 37.7216 36.0915 38.1189 32.5208C39.1816 32.3743 40.0001 31.4625 40.0001 30.3595V27.866C40.0001 26.7849 39.2138 25.8875 38.1819 25.7144V24.6781C38.1819 19.0548 33.6233 14.4962 28.0001 14.4962Z" fill="#D0C6AC"/>
<mask id="mask1_1_2582" style="mask-type:luminance" maskUnits="userSpaceOnUse" x="9" y="14" width="38" height="45">
<path fill-rule="evenodd" clip-rule="evenodd" d="M28.0001 14.4962C22.3768 14.4962 17.8182 19.0548 17.8182 24.6781V25.7144C16.7863 25.8875 16.0001 26.7849 16.0001 27.866V30.3595C16.0001 31.4625 16.8185 32.3743 17.8812 32.5208C18.2786 36.0915 20.5225 39.1048 23.6364 40.5841V43.9312C15.9352 44.3458 9.81824 50.7217 9.81824 58.5263H46.1819C46.1819 50.7217 40.0649 44.3458 32.3637 43.9312V40.5841C35.4776 39.1048 37.7216 36.0915 38.1189 32.5208C39.1816 32.3743 40.0001 31.4625 40.0001 30.3595V27.866C40.0001 26.7849 39.2138 25.8875 38.1819 25.7144V24.6781C38.1819 19.0548 33.6233 14.4962 28.0001 14.4962Z" fill="white"/>
</mask>
<g mask="url(#mask1_1_2582)">
<rect x="4" y="14.4962" width="48" height="44.0301" fill="#C9824B"/>
<path fill-rule="evenodd" clip-rule="evenodd" d="M17.8182 31.3821V32.8257C17.8182 38.449 22.3768 43.0075 28.0001 43.0075C33.6233 43.0075 38.1819 38.449 38.1819 32.8257V31.3821C38.1819 37.0054 33.6233 41.5639 28.0001 41.5639C22.3768 41.5639 17.8182 37.0054 17.8182 31.3821Z" fill="black" fill-opacity="0.1"/>
</g>
<path fill-rule="evenodd" clip-rule="evenodd" d="M28.091 48.0291C31.4549 48.0291 34.1819 46.2937 34.1819 44.153C34.1819 44.1524 34.1819 44.1518 34.1819 44.1512C41.0052 45.3806 46.1819 51.349 46.1819 58.5264H9.81824C9.81824 51.2853 15.0872 45.2748 22.0003 44.1196C22.0001 44.1307 22.0001 44.1419 22.0001 44.153C22.0001 46.2937 24.727 48.0291 28.091 48.0291Z" fill="#E6E6E6"/>
<mask id="mask2_1_2582" style="mask-type:luminance" maskUnits="userSpaceOnUse" x="9" y="44" width="38" height="15">
<path fill-rule="evenodd" clip-rule="evenodd" d="M28.091 48.0291C31.4549 48.0291 34.1819 46.2937 34.1819 44.153C34.1819 44.1524 34.1819 44.1518 34.1819 44.1512C41.0052 45.3806 46.1819 51.349 46.1819 58.5264H9.81824C9.81824 51.2853 15.0872 45.2748 22.0003 44.1196C22.0001 44.1307 22.0001 44.1419 22.0001 44.153C22.0001 46.2937 24.727 48.0291 28.091 48.0291Z" fill="white"/>
</mask>
<g mask="url(#mask2_1_2582)">
<rect x="4" y="38.6767" width="48" height="19.8496" fill="#C2FF5F"/>
<g opacity="0.6">
<ellipse cx="28.0909" cy="44.4236" rx="7.20638" ry="4.85663" fill="black" fill-opacity="0.16"/>
</g>
</g>
<path d="M25.4546 35.0677C25.4546 36.037 26.5743 36.6917 28 36.6917C29.4258 36.6917 30.5455 36.037 30.5455 35.0677C30.5455 34.8683 30.3728 34.7068 30.1819 34.7068C29.9468 34.7068 29.8419 34.8701 29.8182 35.0677C29.5923 35.5978 29.0334 35.9187 28 35.9699C26.9667 35.9187 26.4078 35.5978 26.1819 35.0677C26.1582 34.8701 26.0533 34.7068 25.8182 34.7068C25.6273 34.7068 25.4546 34.8683 25.4546 35.0677Z" fill="#0C092A"/>
<path fill-rule="evenodd" clip-rule="evenodd" d="M25.8182 31.4586C25.8182 32.2559 26.7951 32.9023 28.0001 32.9023C29.205 32.9023 30.1819 32.2559 30.1819 31.4586" fill="black" fill-opacity="0.16"/>
<ellipse cx="23.2728" cy="28.2105" rx="1.09091" ry="1.08271" fill="#0C092A"/>
<ellipse cx="32.7274" cy="28.2105" rx="1.09091" ry="1.08271" fill="#0C092A"/>
<path d="M20.7229 25.8877C20.9948 24.1693 23.2834 22.9971 24.9389 23.7536C25.1213 23.8369 25.3373 23.7577 25.4213 23.5767C25.5053 23.3956 25.4255 23.1813 25.2431 23.0979C23.1544 22.1434 20.352 23.5788 20.0045 25.7758C19.9733 25.9727 20.1089 26.1574 20.3073 26.1883C20.5057 26.2192 20.6918 26.0847 20.7229 25.8877Z" fill="#0C092A"/>
<path d="M35.2772 25.8877C35.0053 24.1693 32.7167 22.9971 31.0613 23.7536C30.8788 23.8369 30.6629 23.7577 30.5789 23.5767C30.4949 23.3956 30.5747 23.1813 30.7571 23.0979C32.8457 22.1434 35.6481 23.5788 35.9957 25.7758C36.0268 25.9727 35.8912 26.1574 35.6928 26.1883C35.4944 26.2192 35.3083 26.0847 35.2772 25.8877Z" fill="#0C092A"/>
<mask id="mask3_1_2582" style="mask-type:luminance" maskUnits="userSpaceOnUse" x="4" y="8" width="48" height="51">
<rect x="4" y="8" width="48" height="50.5263" fill="white"/>
</mask>
<g mask="url(#mask3_1_2582)">
<path fill-rule="evenodd" clip-rule="evenodd" d="M27.9997 33.0715C27.545 32.4696 25.7693 32.2146 24.4949 32.4447C22.7397 32.7616 21.9959 34.6647 22.2211 35.0098C22.3614 35.2247 22.6723 35.1528 22.9956 35.0781C23.1436 35.0439 23.2941 35.009 23.4321 35.0009C23.7023 34.9849 24.0394 35.0403 24.4222 35.1031C25.3279 35.2518 26.4897 35.4426 27.6273 34.8311C27.7748 34.7518 27.9013 34.6362 27.9997 34.4974C28.0981 34.6362 28.2246 34.7518 28.3721 34.8311C29.5097 35.4426 30.6714 35.2518 31.5771 35.1031C31.96 35.0403 32.2971 34.9849 32.5673 35.0009C32.7053 35.009 32.8558 35.0439 33.0038 35.0781C33.3271 35.1528 33.638 35.2247 33.7783 35.0098C34.0035 34.6647 33.2597 32.7616 31.5045 32.4447C30.23 32.2146 28.4544 32.4696 27.9997 33.0715Z" fill="#0C092A"/>
<mask id="mask4_1_2582" style="mask-type:luminance" maskUnits="userSpaceOnUse" x="22" y="32" width="12" height="4">
<path fill-rule="evenodd" clip-rule="evenodd" d="M27.9997 33.0715C27.545 32.4696 25.7693 32.2146 24.4949 32.4447C22.7397 32.7616 21.9959 34.6647 22.2211 35.0098C22.3614 35.2247 22.6723 35.1528 22.9956 35.0781C23.1436 35.0439 23.2941 35.009 23.4321 35.0009C23.7023 34.9849 24.0394 35.0403 24.4222 35.1031C25.3279 35.2518 26.4897 35.4426 27.6273 34.8311C27.7748 34.7518 27.9013 34.6362 27.9997 34.4974C28.0981 34.6362 28.2246 34.7518 28.3721 34.8311C29.5097 35.4426 30.6714 35.2518 31.5771 35.1031C31.96 35.0403 32.2971 34.9849 32.5673 35.0009C32.7053 35.009 32.8558 35.0439 33.0038 35.0781C33.3271 35.1528 33.638 35.2247 33.7783 35.0098C34.0035 34.6647 33.2597 32.7616 31.5045 32.4447C30.23 32.2146 28.4544 32.4696 27.9997 33.0715Z" fill="white"/>
</mask>
<g mask="url(#mask4_1_2582)">
<rect x="12.7273" y="20.9925" width="30.5455" height="27.4286" fill="#0C092A"/>
</g>
<path fill-rule="evenodd" clip-rule="evenodd" d="M37.9472 18.1276C38.1093 18.7136 38.3404 20.284 37.934 20.8042C37.7983 20.9778 36.872 20.4904 36.4857 20.2786C36.2598 20.1547 36.0465 20.0367 35.8435 19.9244C33.1316 18.4237 32.2553 17.9387 27.4993 18.0074C22.3873 18.0813 18.885 20.4583 18.688 20.7015C18.551 20.8706 18.376 21.3223 18.2321 22.5805C18.1866 22.9788 18.1738 23.4772 18.1612 23.9722C18.1339 25.041 18.107 26.0944 17.751 26.0925C17.3076 26.0902 17.2111 21.8004 17.4025 20.0986C17.4097 20.0349 17.4218 19.9591 17.4349 19.8773C17.4755 19.6234 17.5252 19.3127 17.4632 19.1349C17.4353 19.0548 17.3649 19.0061 17.2928 18.9561C17.18 18.8778 17.0628 18.7966 17.097 18.588C17.1354 18.3524 17.2954 18.3301 17.454 18.3081C17.5575 18.2937 17.6603 18.2794 17.7284 18.2058C17.9335 17.9841 17.8108 17.8688 17.6706 17.7371C17.5878 17.6593 17.4989 17.5757 17.4679 17.4612C17.3526 17.0351 17.654 16.9027 17.9564 16.77C17.9795 16.7598 18.0025 16.7497 18.0254 16.7394C18.1503 16.6835 18.2259 16.6643 18.2838 16.6495C18.3916 16.6221 18.4379 16.6104 18.6266 16.4063C18.2391 16.1243 18.0989 15.7402 18.6296 15.5342C18.7312 15.4947 18.9062 15.4966 19.0839 15.4985C19.3004 15.5008 19.5209 15.5032 19.6179 15.431C19.6448 15.4109 19.6622 15.3352 19.6777 15.2678C19.6887 15.2201 19.6987 15.1766 19.7105 15.1599C19.9559 14.8114 19.935 14.5467 19.9066 14.1874C19.9024 14.134 19.898 14.0785 19.8943 14.0203C19.8708 13.6525 19.8739 13.3149 20.3176 13.2781C20.5003 13.263 20.6619 13.3486 20.8213 13.433C20.9202 13.4854 21.0181 13.5373 21.1197 13.5644C21.2788 13.6068 21.3196 13.643 21.3599 13.6424C21.3941 13.6419 21.4281 13.6149 21.534 13.5425C21.7499 13.395 21.7723 13.1728 21.7948 12.9487C21.8146 12.7527 21.8345 12.5553 21.9843 12.4052C22.2707 12.1181 22.493 12.2914 22.7107 12.4611C22.8277 12.5523 22.9434 12.6425 23.0671 12.6596C23.5299 12.7236 23.6242 12.4677 23.7256 12.1923C23.7925 12.0109 23.8624 11.8209 24.0429 11.7083C24.3755 11.501 24.5242 11.6998 24.6673 11.8912C24.758 12.0125 24.8464 12.1307 24.978 12.141C25.1605 12.1552 25.4337 11.9437 25.676 11.756C25.824 11.6414 25.9605 11.5357 26.0577 11.4959C26.4702 11.327 26.7698 11.5075 27.0731 11.6902C27.3291 11.8444 27.5876 12.0002 27.9189 11.9491C27.9731 11.9407 28.0232 11.9325 28.07 11.9248C28.477 11.8581 28.635 11.8322 29.0602 12.0983C29.3675 12.2906 29.5183 12.2627 29.7398 12.2217C29.85 12.2013 29.9777 12.1776 30.1508 12.1763C30.3527 12.1748 30.5118 12.266 30.665 12.3539C30.7911 12.4262 30.9133 12.4963 31.0523 12.5107C31.1293 12.5187 31.2046 12.4828 31.2813 12.4463C31.3577 12.4099 31.4355 12.3728 31.5178 12.3778C31.85 12.3978 32.0066 12.6472 32.1641 12.8981C32.2856 13.0917 32.4076 13.2861 32.6112 13.3766C32.9058 13.5076 33.2359 13.4215 33.5516 13.3391C33.6938 13.302 33.8331 13.2656 33.9649 13.2503C34.6848 13.1664 34.5607 13.6054 34.4284 14.073C34.3706 14.2774 34.3113 14.4872 34.3202 14.6613C34.5289 14.7096 34.7393 14.6337 34.9493 14.5579C35.1479 14.4863 35.3463 14.4147 35.5428 14.4484C36.1606 14.5542 35.9526 15.174 35.8049 15.6141C35.8004 15.6275 35.7959 15.6407 35.7916 15.6537C35.907 15.6517 36.0711 15.6169 36.2555 15.5777C36.776 15.4673 37.459 15.3225 37.67 15.7814C37.7572 15.971 37.6726 16.1983 37.5901 16.4197C37.5332 16.5725 37.4773 16.7225 37.4796 16.8555C37.4843 17.131 37.6088 17.378 37.7334 17.6254C37.8163 17.7898 37.8992 17.9543 37.9472 18.1276ZM37.7019 21.2826C37.7482 21.3144 37.7795 21.3361 37.7875 21.3405C38.107 21.5189 38.36 23.3073 38.3722 23.9911C38.3799 24.4131 38.3867 26.0224 37.937 25.8833C37.8001 25.8409 37.5911 24.989 37.5614 24.4904C37.5317 23.9917 37.2463 22.2953 36.8084 21.5148C36.7845 21.4722 36.7499 21.4219 36.7129 21.3679C36.5948 21.196 36.4515 20.9872 36.5456 20.8724C36.6769 20.7125 36.805 20.7686 36.9565 20.8351C36.9822 20.8464 37.0086 20.8579 37.0358 20.8688C37.1936 20.9319 37.5395 21.1705 37.7019 21.2826Z" fill="#2E3257"/>
<mask id="mask5_1_2582" style="mask-type:luminance" maskUnits="userSpaceOnUse" x="17" y="11" width="22" height="16">
<path fill-rule="evenodd" clip-rule="evenodd" d="M37.9472 18.1276C38.1093 18.7136 38.3404 20.284 37.934 20.8042C37.7983 20.9778 36.872 20.4904 36.4857 20.2786C36.2598 20.1547 36.0465 20.0367 35.8435 19.9244C33.1316 18.4237 32.2553 17.9387 27.4993 18.0074C22.3873 18.0813 18.885 20.4583 18.688 20.7015C18.551 20.8706 18.376 21.3223 18.2321 22.5805C18.1866 22.9788 18.1738 23.4772 18.1612 23.9722C18.1339 25.041 18.107 26.0944 17.751 26.0925C17.3076 26.0902 17.2111 21.8004 17.4025 20.0986C17.4097 20.0349 17.4218 19.9591 17.4349 19.8773C17.4755 19.6234 17.5252 19.3127 17.4632 19.1349C17.4353 19.0548 17.3649 19.0061 17.2928 18.9561C17.18 18.8778 17.0628 18.7966 17.097 18.588C17.1354 18.3524 17.2954 18.3301 17.454 18.3081C17.5575 18.2937 17.6603 18.2794 17.7284 18.2058C17.9335 17.9841 17.8108 17.8688 17.6706 17.7371C17.5878 17.6593 17.4989 17.5757 17.4679 17.4612C17.3526 17.0351 17.654 16.9027 17.9564 16.77C17.9795 16.7598 18.0025 16.7497 18.0254 16.7394C18.1503 16.6835 18.2259 16.6643 18.2838 16.6495C18.3916 16.6221 18.4379 16.6104 18.6266 16.4063C18.2391 16.1243 18.0989 15.7402 18.6296 15.5342C18.7312 15.4947 18.9062 15.4966 19.0839 15.4985C19.3004 15.5008 19.5209 15.5032 19.6179 15.431C19.6448 15.4109 19.6622 15.3352 19.6777 15.2678C19.6887 15.2201 19.6987 15.1766 19.7105 15.1599C19.9559 14.8114 19.935 14.5467 19.9066 14.1874C19.9024 14.134 19.898 14.0785 19.8943 14.0203C19.8708 13.6525 19.8739 13.3149 20.3176 13.2781C20.5003 13.263 20.6619 13.3486 20.8213 13.433C20.9202 13.4854 21.0181 13.5373 21.1197 13.5644C21.2788 13.6068 21.3196 13.643 21.3599 13.6424C21.3941 13.6419 21.4281 13.6149 21.534 13.5425C21.7499 13.395 21.7723 13.1728 21.7948 12.9487C21.8146 12.7527 21.8345 12.5553 21.9843 12.4052C22.2707 12.1181 22.493 12.2914 22.7107 12.4611C22.8277 12.5523 22.9434 12.6425 23.0671 12.6596C23.5299 12.7236 23.6242 12.4677 23.7256 12.1923C23.7925 12.0109 23.8624 11.8209 24.0429 11.7083C24.3755 11.501 24.5242 11.6998 24.6673 11.8912C24.758 12.0125 24.8464 12.1307 24.978 12.141C25.1605 12.1552 25.4337 11.9437 25.676 11.756C25.824 11.6414 25.9605 11.5357 26.0577 11.4959C26.4702 11.327 26.7698 11.5075 27.0731 11.6902C27.3291 11.8444 27.5876 12.0002 27.9189 11.9491C27.9731 11.9407 28.0232 11.9325 28.07 11.9248C28.477 11.8581 28.635 11.8322 29.0602 12.0983C29.3675 12.2906 29.5183 12.2627 29.7398 12.2217C29.85 12.2013 29.9777 12.1776 30.1508 12.1763C30.3527 12.1748 30.5118 12.266 30.665 12.3539C30.7911 12.4262 30.9133 12.4963 31.0523 12.5107C31.1293 12.5187 31.2046 12.4828 31.2813 12.4463C31.3577 12.4099 31.4355 12.3728 31.5178 12.3778C31.85 12.3978 32.0066 12.6472 32.1641 12.8981C32.2856 13.0917 32.4076 13.2861 32.6112 13.3766C32.9058 13.5076 33.2359 13.4215 33.5516 13.3391C33.6938 13.302 33.8331 13.2656 33.9649 13.2503C34.6848 13.1664 34.5607 13.6054 34.4284 14.073C34.3706 14.2774 34.3113 14.4872 34.3202 14.6613C34.5289 14.7096 34.7393 14.6337 34.9493 14.5579C35.1479 14.4863 35.3463 14.4147 35.5428 14.4484C36.1606 14.5542 35.9526 15.174 35.8049 15.6141C35.8004 15.6275 35.7959 15.6407 35.7916 15.6537C35.907 15.6517 36.0711 15.6169 36.2555 15.5777C36.776 15.4673 37.459 15.3225 37.67 15.7814C37.7572 15.971 37.6726 16.1983 37.5901 16.4197C37.5332 16.5725 37.4773 16.7225 37.4796 16.8555C37.4843 17.131 37.6088 17.378 37.7334 17.6254C37.8163 17.7898 37.8992 17.9543 37.9472 18.1276ZM37.7019 21.2826C37.7482 21.3144 37.7795 21.3361 37.7875 21.3405C38.107 21.5189 38.36 23.3073 38.3722 23.9911C38.3799 24.4131 38.3867 26.0224 37.937 25.8833C37.8001 25.8409 37.5911 24.989 37.5614 24.4904C37.5317 23.9917 37.2463 22.2953 36.8084 21.5148C36.7845 21.4722 36.7499 21.4219 36.7129 21.3679C36.5948 21.196 36.4515 20.9872 36.5456 20.8724C36.6769 20.7125 36.805 20.7686 36.9565 20.8351C36.9822 20.8464 37.0086 20.8579 37.0358 20.8688C37.1936 20.9319 37.5395 21.1705 37.7019 21.2826Z" fill="white"/>
</mask>
<g mask="url(#mask5_1_2582)">
<rect x="4" y="8" width="48" height="50.5263" fill="#0C092A"/>
</g>
</g>
</g>
</svg>
