<svg width="56" height="56" viewBox="0 0 56 56" fill="none" xmlns="http://www.w3.org/2000/svg">
<circle cx="28" cy="28" r="28" fill="#C4D0FB"/>
<mask id="mask0_1_2608" style="mask-type:alpha" maskUnits="userSpaceOnUse" x="0" y="0" width="56" height="56">
<circle cx="28" cy="28" r="28" fill="#C4C4C4"/>
</mask>
<g mask="url(#mask0_1_2608)">
<path fill-rule="evenodd" clip-rule="evenodd" d="M28.0001 14.4962C22.3768 14.4962 17.8182 19.0548 17.8182 24.678V25.7144C16.7863 25.8875 16.0001 26.7849 16.0001 27.866V30.3595C16.0001 31.4625 16.8185 32.3743 17.8812 32.5208C18.2786 36.0915 20.5225 39.1048 23.6364 40.5841V43.9312C15.9352 44.3457 9.81824 50.7217 9.81824 58.5263H46.1819C46.1819 50.7217 40.0649 44.3457 32.3637 43.9312V40.5841C35.4776 39.1048 37.7216 36.0915 38.1189 32.5208C39.1816 32.3743 40.0001 31.4625 40.0001 30.3595V27.866C40.0001 26.7849 39.2138 25.8875 38.1819 25.7144V24.6781C38.1819 19.0548 33.6233 14.4962 28.0001 14.4962Z" fill="#D0C6AC"/>
<mask id="mask1_1_2608" style="mask-type:luminance" maskUnits="userSpaceOnUse" x="9" y="14" width="38" height="45">
<path fill-rule="evenodd" clip-rule="evenodd" d="M28.0001 14.4962C22.3768 14.4962 17.8182 19.0548 17.8182 24.678V25.7144C16.7863 25.8875 16.0001 26.7849 16.0001 27.866V30.3595C16.0001 31.4625 16.8185 32.3743 17.8812 32.5208C18.2786 36.0915 20.5225 39.1048 23.6364 40.5841V43.9312C15.9352 44.3457 9.81824 50.7217 9.81824 58.5263H46.1819C46.1819 50.7217 40.0649 44.3457 32.3637 43.9312V40.5841C35.4776 39.1048 37.7216 36.0915 38.1189 32.5208C39.1816 32.3743 40.0001 31.4625 40.0001 30.3595V27.866C40.0001 26.7849 39.2138 25.8875 38.1819 25.7144V24.6781C38.1819 19.0548 33.6233 14.4962 28.0001 14.4962Z" fill="white"/>
</mask>
<g mask="url(#mask1_1_2608)">
<rect x="4" y="14.4962" width="48" height="44.0301" fill="#D08B5B"/>
<path fill-rule="evenodd" clip-rule="evenodd" d="M17.8182 31.3821V32.8257C17.8182 38.449 22.3768 43.0075 28.0001 43.0075C33.6233 43.0075 38.1819 38.449 38.1819 32.8257V31.3821C38.1819 37.0054 33.6233 41.5639 28.0001 41.5639C22.3768 41.5639 17.8182 37.0053 17.8182 31.3821Z" fill="black" fill-opacity="0.1"/>
</g>
<path fill-rule="evenodd" clip-rule="evenodd" d="M28.091 48.0291C31.4549 48.0291 34.1819 46.2937 34.1819 44.153C34.1819 44.1524 34.1819 44.1518 34.1819 44.1512C41.0052 45.3806 46.1819 51.349 46.1819 58.5264H9.81824C9.81824 51.2853 15.0872 45.2747 22.0003 44.1196C22.0001 44.1307 22.0001 44.1418 22.0001 44.153C22.0001 46.2937 24.727 48.0291 28.091 48.0291Z" fill="#E6E6E6"/>
<mask id="mask2_1_2608" style="mask-type:luminance" maskUnits="userSpaceOnUse" x="9" y="44" width="38" height="15">
<path fill-rule="evenodd" clip-rule="evenodd" d="M28.091 48.0291C31.4549 48.0291 34.1819 46.2937 34.1819 44.153C34.1819 44.1524 34.1819 44.1518 34.1819 44.1512C41.0052 45.3806 46.1819 51.349 46.1819 58.5264H9.81824C9.81824 51.2853 15.0872 45.2747 22.0003 44.1196C22.0001 44.1307 22.0001 44.1418 22.0001 44.153C22.0001 46.2937 24.727 48.0291 28.091 48.0291Z" fill="white"/>
</mask>
<g mask="url(#mask2_1_2608)">
<rect x="4" y="38.6767" width="48" height="19.8496" fill="#555FA8"/>
<g opacity="0.6">
<ellipse cx="28.0909" cy="44.4236" rx="7.20638" ry="4.85663" fill="black" fill-opacity="0.16"/>
</g>
</g>
<path d="M25.4546 35.0677C25.4546 36.037 26.5743 36.6917 28 36.6917C29.4258 36.6917 30.5455 36.037 30.5455 35.0677C30.5455 34.8684 30.3728 34.7068 30.1819 34.7068C29.9468 34.7068 29.8419 34.8701 29.8182 35.0677C29.5923 35.5978 29.0334 35.9187 28 35.9699C26.9667 35.9187 26.4078 35.5978 26.1819 35.0677C26.1582 34.8701 26.0533 34.7068 25.8182 34.7068C25.6273 34.7068 25.4546 34.8684 25.4546 35.0677Z" fill="black" fill-opacity="0.6"/>
<path fill-rule="evenodd" clip-rule="evenodd" d="M25.8182 31.4586C25.8182 32.2559 26.7951 32.9023 28.0001 32.9023C29.205 32.9023 30.1819 32.2559 30.1819 31.4586" fill="black" fill-opacity="0.16"/>
<ellipse cx="23.2728" cy="28.2105" rx="1.09091" ry="1.08271" fill="black" fill-opacity="0.6"/>
<ellipse cx="32.7274" cy="28.2105" rx="1.09091" ry="1.08271" fill="black" fill-opacity="0.6"/>
<path d="M20.6601 25.8933C21.3719 24.8992 23.3233 24.3418 25.0042 24.7515C25.1993 24.799 25.3962 24.6806 25.4441 24.4871C25.492 24.2935 25.3727 24.098 25.1777 24.0505C23.2255 23.5747 20.9659 24.2202 20.0673 25.4751C19.9509 25.6376 19.9893 25.8629 20.153 25.9784C20.3167 26.0939 20.5437 26.0557 20.6601 25.8933Z" fill="black" fill-opacity="0.6"/>
<path d="M35.34 25.8933C34.6282 24.8992 32.6768 24.3418 30.9959 24.7515C30.8009 24.799 30.6039 24.6806 30.556 24.4871C30.5081 24.2935 30.6274 24.098 30.8225 24.0505C32.7746 23.5747 35.0343 24.2202 35.9329 25.4751C36.0492 25.6376 36.0108 25.8629 35.8471 25.9784C35.6834 26.0939 35.4564 26.0557 35.34 25.8933Z" fill="black" fill-opacity="0.6"/>
<mask id="mask3_1_2608" style="mask-type:luminance" maskUnits="userSpaceOnUse" x="4" y="8" width="48" height="51">
<rect x="4" y="8" width="48" height="50.5263" fill="white"/>
</mask>
<g mask="url(#mask3_1_2608)">
<path fill-rule="evenodd" clip-rule="evenodd" d="M17.9999 25.6842C17.9404 25.9048 17.6994 25.9528 17.6363 25.6842C17.5056 23.8259 17.6363 14.4467 27.9999 14.3158C38.3636 14.1848 38.4943 23.8259 38.3636 25.6842C38.3005 25.9528 38.0594 25.9048 37.9999 25.6842C38.0841 25.4037 37.4007 20.4959 35.6363 19.188C35.3164 18.9672 34.3187 18.7567 32.9744 18.5995L33.6364 17.0226L32.3669 18.5345C31.0884 18.4093 29.574 18.3311 28.0568 18.33C24.5469 18.3276 21.0214 18.7338 20.3636 19.188C18.5992 20.4959 17.9158 25.4037 17.9999 25.6842Z" fill="#28354B"/>
<mask id="mask4_1_2608" style="mask-type:luminance" maskUnits="userSpaceOnUse" x="17" y="14" width="22" height="12">
<path fill-rule="evenodd" clip-rule="evenodd" d="M17.9999 25.6842C17.9404 25.9048 17.6994 25.9528 17.6363 25.6842C17.5056 23.8259 17.6363 14.4467 27.9999 14.3158C38.3636 14.1848 38.4943 23.8259 38.3636 25.6842C38.3005 25.9528 38.0594 25.9048 37.9999 25.6842C38.0841 25.4037 37.4007 20.4959 35.6363 19.188C35.3164 18.9672 34.3187 18.7567 32.9744 18.5995L33.6364 17.0226L32.3669 18.5345C31.0884 18.4093 29.574 18.3311 28.0568 18.33C24.5469 18.3276 21.0214 18.7338 20.3636 19.188C18.5992 20.4959 17.9158 25.4037 17.9999 25.6842Z" fill="white"/>
</mask>
<g mask="url(#mask4_1_2608)">
<rect x="4" y="8" width="48" height="50.5263" fill="#2C1B18"/>
</g>
<g filter="url(#filter0_d_1_2608)">
<path fill-rule="evenodd" clip-rule="evenodd" d="M24.9542 26.0948C25.3854 26.0988 25.5892 26.17 25.6627 26.6163C25.7371 27.0684 25.6647 27.5766 25.5789 28.0219C25.4479 28.7019 25.2301 29.368 24.723 29.865C24.4559 30.1267 24.1301 30.3353 23.7835 30.4778C23.5995 30.5534 23.4052 30.608 23.2109 30.6495C23.1541 30.6616 22.6693 30.7279 22.9666 30.6942C22.2727 30.7728 21.5198 30.7697 20.9402 30.3313C20.2979 29.8455 19.858 29.0767 19.6646 28.3109C19.5514 27.8628 19.3136 26.7912 19.7481 26.4329C20.2458 26.0225 24.9542 26.0948 24.9542 26.0948ZM20.585 24.8705C19.5958 24.9043 18.9357 25.0768 18.4478 26.0576C17.5537 27.8551 19.0841 30.5508 20.7912 31.2853C22.7871 32.1442 25.0167 31.1937 26.0718 29.4747C26.6306 28.5646 26.9131 27.1861 26.8949 26.136C26.8717 24.7958 25.9285 24.7586 24.8197 24.7881L20.585 24.8705Z" fill="#44509F"/>
<path fill-rule="evenodd" clip-rule="evenodd" d="M31.0329 26.0943C30.6017 26.0984 30.3979 26.1695 30.3244 26.6158C30.25 27.0679 30.3224 27.5762 30.4081 28.0215C30.5392 28.7014 30.757 29.3676 31.2641 29.8645C31.5312 30.1262 31.857 30.3348 32.2036 30.4773C32.3876 30.5529 32.5819 30.6076 32.7762 30.649C32.833 30.6611 33.3178 30.7274 33.0205 30.6937C33.7144 30.7723 34.4673 30.7692 35.0469 30.3308C35.6892 29.845 36.1291 29.0763 36.3225 28.3105C36.4357 27.8624 36.6734 26.7908 36.239 26.4325C35.7413 26.022 31.0329 26.0943 31.0329 26.0943ZM35.4021 24.87C36.3913 24.9038 37.0514 25.0764 37.5393 26.0571C38.4334 27.8546 36.903 30.5503 35.1959 31.2849C33.2 32.1438 30.9704 31.1933 29.9152 29.4743C29.3565 28.5641 29.074 27.1857 29.0921 26.1356C29.1153 24.7953 30.0586 24.7581 31.1674 24.7877L35.4021 24.87Z" fill="#44509F"/>
<path fill-rule="evenodd" clip-rule="evenodd" d="M18.9449 25.671C18.3245 25.7056 17.6156 25.7139 17.0345 25.98C16.4191 26.2619 16.324 26.9002 17.0998 26.9882C17.4492 27.0278 17.799 26.9623 18.1431 26.9014C18.4249 26.8514 18.8076 26.8676 19.0739 26.7607C19.5701 26.5616 19.5382 25.6373 18.9449 25.671Z" fill="#44509F"/>
<path fill-rule="evenodd" clip-rule="evenodd" d="M37.0428 25.671C37.6632 25.7056 38.3721 25.7139 38.9532 25.98C39.5686 26.2619 39.6637 26.9002 38.8879 26.9882C38.5385 27.0278 38.1887 26.9623 37.8446 26.9014C37.5628 26.8514 37.1801 26.8676 36.9138 26.7607C36.4176 26.5616 36.4495 25.6373 37.0428 25.671Z" fill="#44509F"/>
<path fill-rule="evenodd" clip-rule="evenodd" d="M29.8378 26.0474C29.484 25.6324 28.5618 25.3927 27.98 25.3927C27.3982 25.3927 26.5031 25.6324 26.1493 26.0474C25.9708 26.2567 25.9647 26.5367 26.274 26.6679C26.6591 26.8313 27.0029 26.5349 27.3112 26.3799C27.7054 26.1817 28.311 26.2034 28.6759 26.3799C28.9865 26.5302 29.328 26.8313 29.7131 26.6679C30.0223 26.5367 30.0163 26.2567 29.8378 26.0474Z" fill="#44509F"/>
</g>
</g>
</g>
<defs>
<filter id="filter0_d_1_2608" x="16.5454" y="24.782" width="22.8969" height="8.82471" filterUnits="userSpaceOnUse" color-interpolation-filters="sRGB">
<feFlood flood-opacity="0" result="BackgroundImageFix"/>
<feColorMatrix in="SourceAlpha" type="matrix" values="0 0 0 0 0 0 0 0 0 0 0 0 0 0 0 0 0 0 127 0" result="hardAlpha"/>
<feOffset dy="2"/>
<feColorMatrix type="matrix" values="0 0 0 0 0 0 0 0 0 0 0 0 0 0 0 0 0 0 0.1 0"/>
<feBlend mode="normal" in2="BackgroundImageFix" result="effect1_dropShadow_1_2608"/>
<feBlend mode="normal" in="SourceGraphic" in2="effect1_dropShadow_1_2608" result="shape"/>
</filter>
</defs>
</svg>
