<svg width="56" height="56" viewBox="0 0 56 56" fill="none" xmlns="http://www.w3.org/2000/svg">
<circle cx="28" cy="28" r="28" fill="#FFD6DD"/>
<mask id="mask0_1_2595" style="mask-type:alpha" maskUnits="userSpaceOnUse" x="0" y="0" width="56" height="56">
<circle cx="28" cy="28" r="28" fill="#C4C4C4"/>
</mask>
<g mask="url(#mask0_1_2595)">
<path fill-rule="evenodd" clip-rule="evenodd" d="M28.0001 14.4962C22.3768 14.4962 17.8182 19.0548 17.8182 24.6781V25.7144C16.7863 25.8875 16.0001 26.7849 16.0001 27.866V30.3595C16.0001 31.4625 16.8185 32.3743 17.8812 32.5208C18.2786 36.0915 20.5225 39.1048 23.6364 40.5841V43.9312C15.9352 44.3458 9.81824 50.7217 9.81824 58.5263H46.1819C46.1819 50.7217 40.0649 44.3458 32.3637 43.9312V40.5841C35.4776 39.1048 37.7216 36.0915 38.1189 32.5208C39.1816 32.3743 40.0001 31.4625 40.0001 30.3595V27.866C40.0001 26.7849 39.2138 25.8875 38.1819 25.7144V24.6781C38.1819 19.0548 33.6233 14.4962 28.0001 14.4962Z" fill="#D0C6AC"/>
<mask id="mask1_1_2595" style="mask-type:luminance" maskUnits="userSpaceOnUse" x="9" y="14" width="38" height="45">
<path fill-rule="evenodd" clip-rule="evenodd" d="M28.0001 14.4962C22.3768 14.4962 17.8182 19.0548 17.8182 24.6781V25.7144C16.7863 25.8875 16.0001 26.7849 16.0001 27.866V30.3595C16.0001 31.4625 16.8185 32.3743 17.8812 32.5208C18.2786 36.0915 20.5225 39.1048 23.6364 40.5841V43.9312C15.9352 44.3458 9.81824 50.7217 9.81824 58.5263H46.1819C46.1819 50.7217 40.0649 44.3458 32.3637 43.9312V40.5841C35.4776 39.1048 37.7216 36.0915 38.1189 32.5208C39.1816 32.3743 40.0001 31.4625 40.0001 30.3595V27.866C40.0001 26.7849 39.2138 25.8875 38.1819 25.7144V24.6781C38.1819 19.0548 33.6233 14.4962 28.0001 14.4962Z" fill="white"/>
</mask>
<g mask="url(#mask1_1_2595)">
<rect x="4" y="14.4962" width="48" height="44.0301" fill="#EDB98A"/>
<path fill-rule="evenodd" clip-rule="evenodd" d="M17.8182 31.3821V32.8257C17.8182 38.449 22.3768 43.0075 28.0001 43.0075C33.6233 43.0075 38.1819 38.449 38.1819 32.8257V31.3821C38.1819 37.0054 33.6233 41.5639 28.0001 41.5639C22.3768 41.5639 17.8182 37.0054 17.8182 31.3821Z" fill="black" fill-opacity="0.1"/>
</g>
<path fill-rule="evenodd" clip-rule="evenodd" d="M28.0001 48.9717C30.7113 48.9717 32.9091 46.952 32.9091 44.4605C32.9091 44.297 32.8997 44.1357 32.8813 43.9767C40.3365 44.6376 46.1819 50.8993 46.1819 58.5263H9.81824C9.81824 50.8993 15.6636 44.6376 23.1189 43.9767C23.1004 44.1357 23.091 44.297 23.091 44.4605C23.091 46.952 25.2888 48.9717 28.0001 48.9717Z" fill="#E6E6E6"/>
<mask id="mask2_1_2595" style="mask-type:luminance" maskUnits="userSpaceOnUse" x="9" y="43" width="38" height="16">
<path fill-rule="evenodd" clip-rule="evenodd" d="M28.0001 48.9717C30.7113 48.9717 32.9091 46.952 32.9091 44.4605C32.9091 44.297 32.8997 44.1357 32.8813 43.9767C40.3365 44.6376 46.1819 50.8993 46.1819 58.5263H9.81824C9.81824 50.8993 15.6636 44.6376 23.1189 43.9767C23.1004 44.1357 23.091 44.297 23.091 44.4605C23.091 46.952 25.2888 48.9717 28.0001 48.9717Z" fill="white"/>
</mask>
<g mask="url(#mask2_1_2595)">
<rect x="4" y="38.6767" width="48" height="19.8496" fill="#FF7096"/>
</g>
<path fill-rule="evenodd" clip-rule="evenodd" d="M23.6364 42.5693C22.4059 43.3998 21.6364 44.5846 21.6364 45.8998C21.6364 47.2348 22.4294 48.4355 23.6924 49.2677L24.8038 48.3988L25.6364 48.4586L25.4545 47.89L25.4687 47.8789C24.3595 47.3118 23.6364 46.382 23.6364 45.3312C23.6364 45.3312 23.6364 45.3312 23.6364 45.3312V42.5693ZM32.3636 45.3312C32.3636 45.3312 32.3636 45.3312 32.3636 45.3312C32.3636 46.382 31.6404 47.3118 30.5313 47.8789L30.5454 47.89L30.3636 48.4586L31.1962 48.3988L32.2234 49.2019C33.4296 48.3729 34.1818 47.2 34.1818 45.8998C34.1818 44.6507 33.4876 43.5191 32.3636 42.6971V45.3312Z" fill="#F2F2F2"/>
<path d="M25.4546 35.0677C25.4546 36.037 26.5743 36.6917 28 36.6917C29.4258 36.6917 30.5455 36.037 30.5455 35.0677C30.5455 34.8683 30.3728 34.7068 30.1819 34.7068C29.9468 34.7068 29.8419 34.8701 29.8182 35.0677C29.5923 35.5978 29.0334 35.9187 28 35.9699C26.9667 35.9187 26.4078 35.5978 26.1819 35.0677C26.1582 34.8701 26.0533 34.7068 25.8182 34.7068C25.6273 34.7068 25.4546 34.8683 25.4546 35.0677Z" fill="black" fill-opacity="0.6"/>
<path fill-rule="evenodd" clip-rule="evenodd" d="M25.8182 31.4586C25.8182 32.2559 26.7951 32.9023 28.0001 32.9023C29.205 32.9023 30.1819 32.2559 30.1819 31.4586" fill="black" fill-opacity="0.16"/>
<ellipse cx="23.2728" cy="28.2105" rx="1.09091" ry="1.08271" fill="black" fill-opacity="0.6"/>
<ellipse cx="32.7274" cy="28.2105" rx="1.09091" ry="1.08271" fill="black" fill-opacity="0.6"/>
<path d="M20.6601 25.8933C21.3719 24.8992 23.3233 24.3418 25.0042 24.7515C25.1993 24.799 25.3962 24.6807 25.4441 24.4871C25.492 24.2935 25.3727 24.0981 25.1777 24.0505C23.2255 23.5747 20.9659 24.2202 20.0673 25.4752C19.9509 25.6376 19.9893 25.8629 20.153 25.9784C20.3167 26.0939 20.5437 26.0558 20.6601 25.8933Z" fill="black" fill-opacity="0.6"/>
<path d="M35.34 25.8933C34.6282 24.8992 32.6768 24.3418 30.9959 24.7515C30.8009 24.799 30.6039 24.6807 30.556 24.4871C30.5081 24.2935 30.6274 24.0981 30.8225 24.0505C32.7746 23.5747 35.0343 24.2202 35.9329 25.4752C36.0492 25.6376 36.0108 25.8629 35.8471 25.9784C35.6834 26.0939 35.4564 26.0558 35.34 25.8933Z" fill="black" fill-opacity="0.6"/>
<mask id="mask3_1_2595" style="mask-type:luminance" maskUnits="userSpaceOnUse" x="4" y="8" width="48" height="51">
<rect x="4" y="8" width="48" height="50.5263" fill="white"/>
</mask>
<g mask="url(#mask3_1_2595)">
<path fill-rule="evenodd" clip-rule="evenodd" d="M12.9092 24.3308C12.9092 25.152 13.2174 25.8905 13.7916 26.2748C13.9561 26.3849 14.2408 26.4417 14.5455 26.4674V40.8421C14.5455 41.6394 15.1968 42.2857 16.0001 42.2857H23.6365V40.5914C20.449 39.0886 18.1731 35.9906 17.8562 32.3369C16.8057 32.1809 16.0001 31.2815 16.0001 30.1955V27.8496C16.0001 27.2197 16.2711 26.6527 16.7036 26.257C18.8017 25.7844 21.0857 24.897 23.3349 23.6082C25.5407 22.3442 27.4263 20.8586 28.8766 19.3237C28.2536 20.7507 27.4991 22.0008 26.6132 23.074C28.9178 22.0774 30.487 20.475 31.3207 18.267C31.3894 18.4333 31.461 18.5995 31.5354 18.7654C33.4001 22.922 36.6033 25.868 39.8557 26.8396C39.949 27.2205 40.0001 27.576 40.0001 27.8496V30.1955C40.0001 31.2815 39.1945 32.1809 38.144 32.3369C37.827 35.9906 35.5511 39.0886 32.3637 40.5914V42.2857H35.6365C38.8497 42.2857 41.4546 39.7004 41.4546 36.5113V27.1551V26.7443C41.4546 26.7317 41.4528 26.7152 41.449 26.6948C41.4356 25.677 41.3983 23.2892 41.3383 22.8377C40.4686 16.2965 34.8284 11.2481 28.0001 11.2481C21.4392 11.2481 15.9751 15.9088 14.7274 22.0752C13.7232 22.0752 12.9092 23.0851 12.9092 24.3308Z" fill="#944F23"/>
<mask id="mask4_1_2595" style="mask-type:luminance" maskUnits="userSpaceOnUse" x="12" y="11" width="30" height="32">
<path fill-rule="evenodd" clip-rule="evenodd" d="M12.9092 24.3308C12.9092 25.152 13.2174 25.8905 13.7916 26.2748C13.9561 26.3849 14.2408 26.4417 14.5455 26.4674V40.8421C14.5455 41.6394 15.1968 42.2857 16.0001 42.2857H23.6365V40.5914C20.449 39.0886 18.1731 35.9906 17.8562 32.3369C16.8057 32.1809 16.0001 31.2815 16.0001 30.1955V27.8496C16.0001 27.2197 16.2711 26.6527 16.7036 26.257C18.8017 25.7844 21.0857 24.897 23.3349 23.6082C25.5407 22.3442 27.4263 20.8586 28.8766 19.3237C28.2536 20.7507 27.4991 22.0008 26.6132 23.074C28.9178 22.0774 30.487 20.475 31.3207 18.267C31.3894 18.4333 31.461 18.5995 31.5354 18.7654C33.4001 22.922 36.6033 25.868 39.8557 26.8396C39.949 27.2205 40.0001 27.576 40.0001 27.8496V30.1955C40.0001 31.2815 39.1945 32.1809 38.144 32.3369C37.827 35.9906 35.5511 39.0886 32.3637 40.5914V42.2857H35.6365C38.8497 42.2857 41.4546 39.7004 41.4546 36.5113V27.1551V26.7443C41.4546 26.7317 41.4528 26.7152 41.449 26.6948C41.4356 25.677 41.3983 23.2892 41.3383 22.8377C40.4686 16.2965 34.8284 11.2481 28.0001 11.2481C21.4392 11.2481 15.9751 15.9088 14.7274 22.0752C13.7232 22.0752 12.9092 23.0851 12.9092 24.3308Z" fill="white"/>
</mask>
<g mask="url(#mask4_1_2595)">
<rect x="3.81824" y="8" width="48.3636" height="50.5263" fill="#2C1B18"/>
</g>
<g opacity="0.439991">
<path fill-rule="evenodd" clip-rule="evenodd" d="M31.5354 18.7654C33.7059 23.6038 37.6903 26.802 41.4546 27.1551V24.6015C41.4546 17.2266 35.4308 11.2481 28.0001 11.2481C21.4392 11.2481 15.9751 15.9088 14.7858 22.0763C14.7664 22.0756 14.7469 22.0752 14.7274 22.0752C13.7232 22.0752 12.9092 23.0851 12.9092 24.3308C12.9092 25.5004 13.6268 26.4622 14.5455 26.5753V26.6032C14.603 26.598 14.6607 26.5924 14.7187 26.5864C14.7216 26.5865 14.7245 26.5865 14.7274 26.5865C14.8454 26.5865 14.9609 26.5725 15.0727 26.5458C17.5839 26.2282 20.4873 25.2399 23.3349 23.6082C25.5407 22.3442 27.4263 20.8586 28.8766 19.3237C28.2536 20.7507 27.4991 22.0008 26.6132 23.074C28.9178 22.0774 30.487 20.475 31.3207 18.267C31.3894 18.4333 31.461 18.5995 31.5354 18.7654Z" fill="white" fill-opacity="0.16"/>
</g>
</g>
</g>
</svg>
