<svg width="56" height="56" viewBox="0 0 56 56" fill="none" xmlns="http://www.w3.org/2000/svg">
<circle cx="28" cy="28" r="28" fill="#FFD6DD"/>
<mask id="mask0_1_2692" style="mask-type:alpha" maskUnits="userSpaceOnUse" x="0" y="0" width="56" height="56">
<circle cx="28" cy="28" r="28" fill="#C4C4C4"/>
</mask>
<g mask="url(#mask0_1_2692)">
<path fill-rule="evenodd" clip-rule="evenodd" d="M28.0001 14.4962C22.3768 14.4962 17.8182 19.0548 17.8182 24.678V25.7144C16.7863 25.8875 16.0001 26.7849 16.0001 27.866V30.3595C16.0001 31.4625 16.8185 32.3743 17.8812 32.5208C18.2786 36.0915 20.5225 39.1048 23.6364 40.5841V43.9312C15.9352 44.3457 9.81824 50.7217 9.81824 58.5263H46.1819C46.1819 50.7217 40.0649 44.3457 32.3637 43.9312V40.5841C35.4776 39.1048 37.7216 36.0915 38.1189 32.5208C39.1816 32.3743 40.0001 31.4625 40.0001 30.3595V27.866C40.0001 26.7849 39.2138 25.8875 38.1819 25.7144V24.678C38.1819 19.0548 33.6233 14.4962 28.0001 14.4962Z" fill="#D0C6AC"/>
<mask id="mask1_1_2692" style="mask-type:luminance" maskUnits="userSpaceOnUse" x="9" y="14" width="38" height="45">
<path fill-rule="evenodd" clip-rule="evenodd" d="M28.0001 14.4962C22.3768 14.4962 17.8182 19.0548 17.8182 24.678V25.7144C16.7863 25.8875 16.0001 26.7849 16.0001 27.866V30.3595C16.0001 31.4625 16.8185 32.3743 17.8812 32.5208C18.2786 36.0915 20.5225 39.1048 23.6364 40.5841V43.9312C15.9352 44.3457 9.81824 50.7217 9.81824 58.5263H46.1819C46.1819 50.7217 40.0649 44.3457 32.3637 43.9312V40.5841C35.4776 39.1048 37.7216 36.0915 38.1189 32.5208C39.1816 32.3743 40.0001 31.4625 40.0001 30.3595V27.866C40.0001 26.7849 39.2138 25.8875 38.1819 25.7144V24.678C38.1819 19.0548 33.6233 14.4962 28.0001 14.4962Z" fill="white"/>
</mask>
<g mask="url(#mask1_1_2692)">
<rect x="4" y="14.4962" width="48" height="44.0301" fill="#FFDBB4"/>
<path fill-rule="evenodd" clip-rule="evenodd" d="M17.8182 31.3821V32.8257C17.8182 38.449 22.3768 43.0075 28.0001 43.0075C33.6233 43.0075 38.1819 38.449 38.1819 32.8257V31.3821C38.1819 37.0054 33.6233 41.5639 28.0001 41.5639C22.3768 41.5639 17.8182 37.0053 17.8182 31.3821Z" fill="black" fill-opacity="0.1"/>
</g>
<path fill-rule="evenodd" clip-rule="evenodd" d="M28.091 48.0291C31.4549 48.0291 34.1819 46.2937 34.1819 44.153C34.1819 44.1524 34.1819 44.1518 34.1819 44.1512C41.0052 45.3806 46.1819 51.3489 46.1819 58.5264H9.81824C9.81824 51.2852 15.0872 45.2747 22.0003 44.1196C22.0001 44.1307 22.0001 44.1418 22.0001 44.153C22.0001 46.2937 24.727 48.0291 28.091 48.0291Z" fill="#E6E6E6"/>
<mask id="mask2_1_2692" style="mask-type:luminance" maskUnits="userSpaceOnUse" x="9" y="44" width="38" height="15">
<path fill-rule="evenodd" clip-rule="evenodd" d="M28.091 48.0291C31.4549 48.0291 34.1819 46.2937 34.1819 44.153C34.1819 44.1524 34.1819 44.1518 34.1819 44.1512C41.0052 45.3806 46.1819 51.3489 46.1819 58.5264H9.81824C9.81824 51.2852 15.0872 45.2747 22.0003 44.1196C22.0001 44.1307 22.0001 44.1418 22.0001 44.153C22.0001 46.2937 24.727 48.0291 28.091 48.0291Z" fill="white"/>
</mask>
<g mask="url(#mask2_1_2692)">
<rect x="4" y="38.6767" width="48" height="19.8496" fill="#555FA8"/>
<g opacity="0.6">
<ellipse cx="28.0909" cy="44.4236" rx="7.20638" ry="4.85663" fill="black" fill-opacity="0.16"/>
</g>
</g>
<path d="M25.4546 35.0676C25.4546 36.037 26.5743 36.6917 28 36.6917C29.4258 36.6917 30.5455 36.037 30.5455 35.0676C30.5455 34.8683 30.3728 34.7067 30.1819 34.7067C29.9468 34.7067 29.8419 34.8701 29.8182 35.0676C29.5923 35.5978 29.0334 35.9187 28 35.9699C26.9667 35.9187 26.4078 35.5978 26.1819 35.0676C26.1582 34.8701 26.0533 34.7067 25.8182 34.7067C25.6273 34.7067 25.4546 34.8683 25.4546 35.0676Z" fill="black" fill-opacity="0.6"/>
<path fill-rule="evenodd" clip-rule="evenodd" d="M25.8182 31.4586C25.8182 32.2559 26.7951 32.9022 28.0001 32.9022C29.205 32.9022 30.1819 32.2559 30.1819 31.4586" fill="black" fill-opacity="0.16"/>
<ellipse cx="23.2728" cy="28.2105" rx="1.09091" ry="1.08271" fill="black" fill-opacity="0.6"/>
<ellipse cx="32.7274" cy="28.2105" rx="1.09091" ry="1.08271" fill="black" fill-opacity="0.6"/>
<path d="M20.6601 25.8933C21.3719 24.8992 23.3233 24.3418 25.0042 24.7515C25.1993 24.799 25.3962 24.6806 25.4441 24.4871C25.492 24.2935 25.3727 24.098 25.1777 24.0505C23.2255 23.5747 20.9659 24.2202 20.0673 25.4751C19.9509 25.6376 19.9893 25.8629 20.153 25.9784C20.3167 26.0938 20.5437 26.0557 20.6601 25.8933Z" fill="black" fill-opacity="0.6"/>
<path d="M35.34 25.8933C34.6282 24.8992 32.6768 24.3418 30.9959 24.7515C30.8009 24.799 30.6039 24.6806 30.556 24.4871C30.5081 24.2935 30.6274 24.098 30.8225 24.0505C32.7746 23.5747 35.0343 24.2202 35.9329 25.4751C36.0492 25.6376 36.0108 25.8629 35.8471 25.9784C35.6834 26.0938 35.4564 26.0557 35.34 25.8933Z" fill="black" fill-opacity="0.6"/>
<mask id="mask3_1_2692" style="mask-type:luminance" maskUnits="userSpaceOnUse" x="4" y="8" width="48" height="51">
<rect x="4" y="8" width="48" height="50.5263" fill="white"/>
</mask>
<g mask="url(#mask3_1_2692)">
<path fill-rule="evenodd" clip-rule="evenodd" d="M19.8516 14.8312C20.7863 14.1397 21.8913 13.547 23.0442 13.3194C24.2163 13.088 24.9275 13.0318 26.0814 13.3062C26.3782 13.3768 26.4784 13.447 26.7398 13.2794C26.9599 13.1382 28.4965 11.5669 33.1798 12.4391C37.9134 13.3205 39.3196 20.3925 41.0755 20.6616C41.7083 20.7585 42.4904 20.5922 42.5148 20.2055C43.2355 21.2943 43.4254 22.7331 43.1198 24.0083C42.8568 25.1066 42.3022 26.1385 41.3036 26.7397C40.4444 27.2572 39.2564 27.4826 38.2635 27.3871C37.8116 27.3438 37.4007 27.2493 36.9849 27.0685C36.4833 26.8502 36.0836 26.4566 35.5914 26.2486C36.1053 26.6904 36.6646 27.08 37.2598 27.4068C37.5579 27.5704 37.8605 27.6832 38.1895 27.772C38.4141 27.8327 38.8733 28.0393 39.0906 27.9853C37.671 28.2373 36.3341 28.0177 35.0325 27.4146C34.445 27.1425 33.88 26.8133 33.3614 26.4263C32.8463 26.042 32.2533 25.6492 31.8503 25.1435C32.0195 25.3607 31.7236 25.0376 31.6845 24.9981C31.5739 24.8863 31.4657 24.7722 31.3596 24.6561C31.1774 24.457 30.9964 24.2541 30.8267 24.0443C30.4642 23.5957 30.1265 23.1272 29.8254 22.6361C29.5204 22.1388 28.3056 20.1327 27.939 19.6606C28.2853 20.6906 28.6626 21.721 29.104 22.7148C28.247 22.4495 27.416 21.7143 26.8685 21.0292C26.2518 20.2576 25.8866 19.3568 25.7579 18.3828C25.0624 20.2623 23.4334 21.7445 21.7521 22.7668C22.1163 22.0937 22.6713 21.5244 23.0343 20.8399C21.3632 22.5234 18.5674 23.347 17.8352 25.8157C17.6475 24.9572 17.0438 24.2673 16.863 23.3917C16.6622 22.4193 16.5181 21.3871 16.55 20.3933C16.6222 18.1843 18.1194 16.1126 19.8516 14.8312Z" fill="#28354B"/>
<mask id="mask4_1_2692" style="mask-type:luminance" maskUnits="userSpaceOnUse" x="16" y="12" width="28" height="17">
<path fill-rule="evenodd" clip-rule="evenodd" d="M19.8516 14.8312C20.7863 14.1397 21.8913 13.547 23.0442 13.3194C24.2163 13.088 24.9275 13.0318 26.0814 13.3062C26.3782 13.3768 26.4784 13.447 26.7398 13.2794C26.9599 13.1382 28.4965 11.5669 33.1798 12.4391C37.9134 13.3205 39.3196 20.3925 41.0755 20.6616C41.7083 20.7585 42.4904 20.5922 42.5148 20.2055C43.2355 21.2943 43.4254 22.7331 43.1198 24.0083C42.8568 25.1066 42.3022 26.1385 41.3036 26.7397C40.4444 27.2572 39.2564 27.4826 38.2635 27.3871C37.8116 27.3438 37.4007 27.2493 36.9849 27.0685C36.4833 26.8502 36.0836 26.4566 35.5914 26.2486C36.1053 26.6904 36.6646 27.08 37.2598 27.4068C37.5579 27.5704 37.8605 27.6832 38.1895 27.772C38.4141 27.8327 38.8733 28.0393 39.0906 27.9853C37.671 28.2373 36.3341 28.0177 35.0325 27.4146C34.445 27.1425 33.88 26.8133 33.3614 26.4263C32.8463 26.042 32.2533 25.6492 31.8503 25.1435C32.0195 25.3607 31.7236 25.0376 31.6845 24.9981C31.5739 24.8863 31.4657 24.7722 31.3596 24.6561C31.1774 24.457 30.9964 24.2541 30.8267 24.0443C30.4642 23.5957 30.1265 23.1272 29.8254 22.6361C29.5204 22.1388 28.3056 20.1327 27.939 19.6606C28.2853 20.6906 28.6626 21.721 29.104 22.7148C28.247 22.4495 27.416 21.7143 26.8685 21.0292C26.2518 20.2576 25.8866 19.3568 25.7579 18.3828C25.0624 20.2623 23.4334 21.7445 21.7521 22.7668C22.1163 22.0937 22.6713 21.5244 23.0343 20.8399C21.3632 22.5234 18.5674 23.347 17.8352 25.8157C17.6475 24.9572 17.0438 24.2673 16.863 23.3917C16.6622 22.4193 16.5181 21.3871 16.55 20.3933C16.6222 18.1843 18.1194 16.1126 19.8516 14.8312Z" fill="white"/>
</mask>
<g mask="url(#mask4_1_2692)">
<rect x="4" y="8" width="48" height="50.5263" fill="#2C1B18"/>
</g>
</g>
</g>
</svg>
