<svg width="20" height="20" viewBox="0 0 20 20" fill="none" xmlns="http://www.w3.org/2000/svg">
<mask id="mask0_1_2583" style="mask-type:alpha" maskUnits="userSpaceOnUse" x="0" y="0" width="20" height="20">
<rect width="20" height="20" rx="4" fill="#C4C4C4"/>
</mask>
<g mask="url(#mask0_1_2583)">
<mask id="mask1_1_2583" style="mask-type:luminance" maskUnits="userSpaceOnUse" x="-3" y="0" width="27" height="20">
<rect x="-3" width="26.6667" height="20" rx="2" fill="white"/>
</mask>
<g mask="url(#mask1_1_2583)">
<path fill-rule="evenodd" clip-rule="evenodd" d="M3.66663 0H23.6666V20H3.66663V0Z" fill="#EF0000"/>
<path fill-rule="evenodd" clip-rule="evenodd" d="M-3 0H7V20H-3V0Z" fill="#2F8D00"/>
<mask id="mask2_1_2583" style="mask-type:luminance" maskUnits="userSpaceOnUse" x="0" y="3" width="14" height="14">
<path fill-rule="evenodd" clip-rule="evenodd" d="M6.92064 16.506C3.37024 16.506 0.492065 13.5932 0.492065 10C0.492065 6.40683 3.37024 3.49399 6.92064 3.49399C10.471 3.49399 13.3492 6.40683 13.3492 10C13.3492 13.5932 10.471 16.506 6.92064 16.506Z" fill="white"/>
</mask>
<g mask="url(#mask2_1_2583)">
<path fill-rule="evenodd" clip-rule="evenodd" d="M6.5238 3.33334H7.35714V5.58234H6.5238V3.33334Z" fill="#FFE017"/>
<path fill-rule="evenodd" clip-rule="evenodd" d="M6.5238 14.5783H7.35714V16.6667H6.5238V14.5783Z" fill="#FFE017"/>
<path d="M0.595413 10.3365L0.362427 9.73877C2.93341 8.71237 4.87388 8.05045 6.19054 7.75213C8.12231 7.31446 10.2449 6.99064 12.5584 6.78043L12.6151 7.42042C10.3282 7.62822 8.23284 7.94789 6.32925 8.37918C5.05178 8.66861 3.13827 9.32135 0.595413 10.3365Z" fill="#FFE017"/>
<path d="M12.9508 6.3866L12.7617 7.00001C10.8186 6.38659 9.23576 6.12291 8.01907 6.20458L7.97705 5.56342C9.28338 5.47573 10.9393 5.75158 12.9508 6.3866Z" fill="#FFE017"/>
<path d="M13.6231 9.81649L13.2639 10.3464C12.2734 9.65864 11.053 9.31319 9.59448 9.31319V8.67062C11.1756 8.67062 12.5213 9.05153 13.6231 9.81649Z" fill="#FFE017"/>
<path d="M13.085 10.0088L13.2491 10.6295C11.1136 11.208 9.10865 11.5362 7.23411 11.6135C5.34664 11.6913 3.14676 11.3619 0.632568 10.6279L0.808555 10.0105C3.26164 10.7267 5.3955 11.0462 7.20826 10.9714C9.03395 10.8962 10.9929 10.5755 13.085 10.0088Z" fill="#FFE017"/>
<path d="M12.8431 13.0299L11.8395 14.0588C9.93227 12.1533 8.25316 10.7909 6.81252 9.97223C5.34727 9.1396 3.43644 8.29413 1.08301 7.43921L1.56563 6.07843C3.98847 6.95856 5.96958 7.83514 7.51193 8.71158C9.0789 9.60201 10.8525 11.0412 12.8431 13.0299Z" fill="#FFE017"/>
<path d="M1.54858 13.6127L1.1687 13.0979C1.22175 13.0578 1.31641 12.9909 1.44682 12.9062C1.66216 12.7663 1.90127 12.6267 2.15854 12.4961C2.86713 12.1367 3.57791 11.9123 4.25584 11.8917C4.289 11.8906 4.32201 11.8901 4.35488 11.8901V12.5327C4.3284 12.5327 4.30174 12.5331 4.27491 12.5339C3.7036 12.5513 3.07621 12.7494 2.44305 13.0706C2.20705 13.1903 1.98716 13.3187 1.78981 13.447C1.72112 13.4916 1.66034 13.5328 1.60826 13.5696C1.5779 13.5911 1.55775 13.6058 1.54858 13.6127Z" fill="#FFE017"/>
<path d="M1.84338 13.8355L2.00328 13.2136C4.12004 13.7711 5.75195 14.0489 6.89085 14.0489C8.0255 14.0489 9.71433 13.7212 11.9464 13.0636L12.1238 13.6806C9.83901 14.3537 8.09834 14.6915 6.89085 14.6915C5.68762 14.6915 4.00784 14.4055 1.84338 13.8355Z" fill="#FFE017"/>
<path d="M1.01868 8.0787L2.02457 7.05209L3.49734 8.53013L2.49144 9.55674L1.01868 8.0787Z" fill="#FFE017"/>
<path d="M9.36328 13.2065L10.1115 11.9748L12.4478 13.4285L11.6996 14.6602L9.36328 13.2065Z" fill="#FFE017"/>
</g>
<path fill-rule="evenodd" clip-rule="evenodd" d="M0.492065 10C0.492065 13.5932 3.37024 16.506 6.92064 16.506C10.471 16.506 13.3492 13.5932 13.3492 10C13.3492 6.40683 10.471 3.49399 6.92064 3.49399C3.37024 3.49399 0.492065 6.40683 0.492065 10ZM12.5556 10.0803C12.5556 13.1856 10.0683 15.7028 7.00002 15.7028C3.93178 15.7028 1.44447 13.1856 1.44447 10.0803C1.44447 6.97512 3.93178 4.45785 7.00002 4.45785C10.0683 4.45785 12.5556 6.97512 12.5556 10.0803Z" fill="#F9E813"/>
<path d="M3.38062 5.98776V11.205C3.72406 13.2701 4.88111 14.3026 6.85177 14.3026C8.82243 14.3026 9.97948 13.2701 10.3229 11.205V5.98776H3.38062Z" fill="white"/>
<path d="M2.90442 5.50583H10.7991V11.2453L10.7925 11.285C10.4111 13.5781 9.05917 14.7845 6.85177 14.7845C4.64436 14.7845 3.29239 13.5781 2.91102 11.285L2.90442 11.2453V5.50583Z" fill="#C51918"/>
<path d="M4.71021 7.25894H8.99331V10.9597C8.99331 10.9597 8.67547 12.8708 6.85176 12.8708C5.02804 12.8708 4.71021 10.9597 4.71021 10.9597V7.25894Z" fill="#F7FCFF"/>
<path fill-rule="evenodd" clip-rule="evenodd" d="M3.66663 5.90366H4.26904V6.30526H3.66663V5.90366Z" fill="#F9E813"/>
<path fill-rule="evenodd" clip-rule="evenodd" d="M3.34924 6.0643H4.46035V6.2651H3.34924V6.0643Z" fill="#060101"/>
<path fill-rule="evenodd" clip-rule="evenodd" d="M3.34924 6.22495H3.95165V6.42575H3.34924V6.22495Z" fill="#F9E813"/>
<path fill-rule="evenodd" clip-rule="evenodd" d="M3.98413 6.22495H4.58654V6.42575H3.98413V6.22495Z" fill="#F9E813"/>
<path fill-rule="evenodd" clip-rule="evenodd" d="M3.34924 6.70688H3.75085V7.30929H3.34924V6.70688Z" fill="#F9E813"/>
<path fill-rule="evenodd" clip-rule="evenodd" d="M4.14294 6.70688H4.54455V7.30929H4.14294V6.70688Z" fill="#F9E813"/>
<path fill-rule="evenodd" clip-rule="evenodd" d="M3.82544 6.70688H4.02624V7.30929H3.82544V6.70688Z" fill="#F9E813"/>
<path fill-rule="evenodd" clip-rule="evenodd" d="M3.34924 6.54623H4.46035V6.74704H3.34924V6.54623Z" fill="#060101"/>
<path fill-rule="evenodd" clip-rule="evenodd" d="M3.34924 7.02817H4.46035V7.22897H3.34924V7.02817Z" fill="#060101"/>
<path fill-rule="evenodd" clip-rule="evenodd" d="M3.50806 6.38559H3.70886V6.58639H3.50806V6.38559Z" fill="#F9E813"/>
<path fill-rule="evenodd" clip-rule="evenodd" d="M4.14294 6.38559H4.34375V6.58639H4.14294V6.38559Z" fill="#F9E813"/>
<path fill-rule="evenodd" clip-rule="evenodd" d="M3.82544 6.22495H4.02624V6.62655H3.82544V6.22495Z" fill="#F9E813"/>
<path fill-rule="evenodd" clip-rule="evenodd" d="M6.6825 5.90366H7.2849V6.30526H6.6825V5.90366Z" fill="#F9E813"/>
<path fill-rule="evenodd" clip-rule="evenodd" d="M6.36511 6.0643H7.47622V6.2651H6.36511V6.0643Z" fill="#060101"/>
<path fill-rule="evenodd" clip-rule="evenodd" d="M6.36511 6.22495H6.96752V6.42575H6.36511V6.22495Z" fill="#F9E813"/>
<path fill-rule="evenodd" clip-rule="evenodd" d="M7 6.22495H7.60241V6.42575H7V6.22495Z" fill="#F9E813"/>
<path fill-rule="evenodd" clip-rule="evenodd" d="M6.36511 6.70688H6.76672V7.30929H6.36511V6.70688Z" fill="#F9E813"/>
<path fill-rule="evenodd" clip-rule="evenodd" d="M7.15881 6.70688H7.56042V7.30929H7.15881V6.70688Z" fill="#F9E813"/>
<path fill-rule="evenodd" clip-rule="evenodd" d="M6.84131 6.70688H7.04211V7.30929H6.84131V6.70688Z" fill="#F9E813"/>
<path fill-rule="evenodd" clip-rule="evenodd" d="M6.36511 6.54623H7.47622V6.74704H6.36511V6.54623Z" fill="#060101"/>
<path fill-rule="evenodd" clip-rule="evenodd" d="M6.36511 7.02817H7.47622V7.22897H6.36511V7.02817Z" fill="#060101"/>
<path fill-rule="evenodd" clip-rule="evenodd" d="M6.52393 6.38559H6.72473V6.58639H6.52393V6.38559Z" fill="#F9E813"/>
<path fill-rule="evenodd" clip-rule="evenodd" d="M7.15881 6.38559H7.35962V6.58639H7.15881V6.38559Z" fill="#F9E813"/>
<path fill-rule="evenodd" clip-rule="evenodd" d="M6.84131 6.22495H7.04211V6.62655H6.84131V6.22495Z" fill="#F9E813"/>
<path fill-rule="evenodd" clip-rule="evenodd" d="M9.53967 5.90366H10.1421V6.30526H9.53967V5.90366Z" fill="#F9E813"/>
<path fill-rule="evenodd" clip-rule="evenodd" d="M9.22229 6.0643H10.3334V6.2651H9.22229V6.0643Z" fill="#060101"/>
<path fill-rule="evenodd" clip-rule="evenodd" d="M9.22229 6.22495H9.8247V6.42575H9.22229V6.22495Z" fill="#F9E813"/>
<path fill-rule="evenodd" clip-rule="evenodd" d="M9.85718 6.22495H10.4596V6.42575H9.85718V6.22495Z" fill="#F9E813"/>
<path fill-rule="evenodd" clip-rule="evenodd" d="M9.22229 6.70688H9.6239V7.30929H9.22229V6.70688Z" fill="#F9E813"/>
<path fill-rule="evenodd" clip-rule="evenodd" d="M10.016 6.70688H10.4176V7.30929H10.016V6.70688Z" fill="#F9E813"/>
<path fill-rule="evenodd" clip-rule="evenodd" d="M9.69849 6.70688H9.89929V7.30929H9.69849V6.70688Z" fill="#F9E813"/>
<path fill-rule="evenodd" clip-rule="evenodd" d="M9.22229 6.54623H10.3334V6.74704H9.22229V6.54623Z" fill="#060101"/>
<path fill-rule="evenodd" clip-rule="evenodd" d="M9.22229 7.02817H10.3334V7.22897H9.22229V7.02817Z" fill="#060101"/>
<path fill-rule="evenodd" clip-rule="evenodd" d="M9.3811 6.38559H9.58191V6.58639H9.3811V6.38559Z" fill="#F9E813"/>
<path fill-rule="evenodd" clip-rule="evenodd" d="M10.016 6.38559H10.2168V6.58639H10.016V6.38559Z" fill="#F9E813"/>
<path fill-rule="evenodd" clip-rule="evenodd" d="M9.69849 6.22495H9.89929V6.62655H9.69849V6.22495Z" fill="#F9E813"/>
<path fill-rule="evenodd" clip-rule="evenodd" d="M9.53967 8.79523H10.1421V9.19683H9.53967V8.79523Z" fill="#F9E813"/>
<path fill-rule="evenodd" clip-rule="evenodd" d="M9.22229 8.95587H10.3334V9.15668H9.22229V8.95587Z" fill="#060101"/>
<path fill-rule="evenodd" clip-rule="evenodd" d="M9.22229 9.11652H9.8247V9.31732H9.22229V9.11652Z" fill="#F9E813"/>
<path fill-rule="evenodd" clip-rule="evenodd" d="M9.85718 9.11652H10.4596V9.31732H9.85718V9.11652Z" fill="#F9E813"/>
<path fill-rule="evenodd" clip-rule="evenodd" d="M9.22229 9.59845H9.6239V10.2009H9.22229V9.59845Z" fill="#F9E813"/>
<path fill-rule="evenodd" clip-rule="evenodd" d="M10.016 9.59845H10.4176V10.2009H10.016V9.59845Z" fill="#F9E813"/>
<path fill-rule="evenodd" clip-rule="evenodd" d="M9.69849 9.59845H9.89929V10.2009H9.69849V9.59845Z" fill="#F9E813"/>
<path fill-rule="evenodd" clip-rule="evenodd" d="M9.22229 9.43781H10.3334V9.63861H9.22229V9.43781Z" fill="#060101"/>
<path fill-rule="evenodd" clip-rule="evenodd" d="M9.22229 9.91974H10.3334V10.1205H9.22229V9.91974Z" fill="#060101"/>
<path fill-rule="evenodd" clip-rule="evenodd" d="M9.3811 9.27716H9.58191V9.47796H9.3811V9.27716Z" fill="#F9E813"/>
<path fill-rule="evenodd" clip-rule="evenodd" d="M10.016 9.27716H10.2168V9.47796H10.016V9.27716Z" fill="#F9E813"/>
<path fill-rule="evenodd" clip-rule="evenodd" d="M9.69849 9.11652H9.89929V9.51812H9.69849V9.11652Z" fill="#F9E813"/>
<path fill-rule="evenodd" clip-rule="evenodd" d="M3.66663 8.79523H4.26904V9.19683H3.66663V8.79523Z" fill="#F9E813"/>
<path fill-rule="evenodd" clip-rule="evenodd" d="M3.34924 8.95587H4.46035V9.15668H3.34924V8.95587Z" fill="#060101"/>
<path fill-rule="evenodd" clip-rule="evenodd" d="M3.34924 9.11652H3.95165V9.31732H3.34924V9.11652Z" fill="#F9E813"/>
<path fill-rule="evenodd" clip-rule="evenodd" d="M3.98413 9.11652H4.58654V9.31732H3.98413V9.11652Z" fill="#F9E813"/>
<path fill-rule="evenodd" clip-rule="evenodd" d="M3.34924 9.59845H3.75085V10.2009H3.34924V9.59845Z" fill="#F9E813"/>
<path fill-rule="evenodd" clip-rule="evenodd" d="M4.14294 9.59845H4.54455V10.2009H4.14294V9.59845Z" fill="#F9E813"/>
<path fill-rule="evenodd" clip-rule="evenodd" d="M3.82544 9.59845H4.02624V10.2009H3.82544V9.59845Z" fill="#F9E813"/>
<path fill-rule="evenodd" clip-rule="evenodd" d="M3.34924 9.43781H4.46035V9.63861H3.34924V9.43781Z" fill="#060101"/>
<path fill-rule="evenodd" clip-rule="evenodd" d="M3.34924 9.91974H4.46035V10.1205H3.34924V9.91974Z" fill="#060101"/>
<path fill-rule="evenodd" clip-rule="evenodd" d="M3.50806 9.27716H3.70886V9.47796H3.50806V9.27716Z" fill="#F9E813"/>
<path fill-rule="evenodd" clip-rule="evenodd" d="M4.14294 9.27716H4.34375V9.47796H4.14294V9.27716Z" fill="#F9E813"/>
<path fill-rule="evenodd" clip-rule="evenodd" d="M3.82544 9.11652H4.02624V9.51812H3.82544V9.11652Z" fill="#F9E813"/>
<path fill-rule="evenodd" clip-rule="evenodd" d="M4.05322 12.42L4.44044 11.9586L4.74809 12.2167L4.36087 12.6782L4.05322 12.42Z" fill="#F9E813"/>
<path fill-rule="evenodd" clip-rule="evenodd" d="M3.97217 12.7664L4.68638 11.9153L4.8402 12.0444L4.12599 12.8955L3.97217 12.7664Z" fill="#060101"/>
<path fill-rule="evenodd" clip-rule="evenodd" d="M4.09521 12.8698L4.48244 12.4083L4.63626 12.5374L4.24904 12.9988L4.09521 12.8698Z" fill="#F9E813"/>
<path fill-rule="evenodd" clip-rule="evenodd" d="M4.50342 12.3834L4.89064 11.9219L5.04446 12.051L4.65724 12.5125L4.50342 12.3834Z" fill="#F9E813"/>
<path fill-rule="evenodd" clip-rule="evenodd" d="M4.46436 13.1795L4.7225 12.8719L5.18397 13.2591L4.92583 13.5667L4.46436 13.1795Z" fill="#F9E813"/>
<path fill-rule="evenodd" clip-rule="evenodd" d="M4.97449 12.5716L5.23263 12.2639L5.69411 12.6511L5.43596 12.9588L4.97449 12.5716Z" fill="#F9E813"/>
<path fill-rule="evenodd" clip-rule="evenodd" d="M4.77051 12.8147L4.89958 12.6609L5.36105 13.0481L5.23198 13.2019L4.77051 12.8147Z" fill="#F9E813"/>
<path fill-rule="evenodd" clip-rule="evenodd" d="M4.34131 13.0763L5.05552 12.2251L5.20934 12.3542L4.49513 13.2053L4.34131 13.0763Z" fill="#060101"/>
<path fill-rule="evenodd" clip-rule="evenodd" d="M4.71057 13.386L5.42478 12.5349L5.5786 12.664L4.8644 13.5151L4.71057 13.386Z" fill="#060101"/>
<path fill-rule="evenodd" clip-rule="evenodd" d="M4.32031 12.8514L4.44939 12.6976L4.60321 12.8266L4.47414 12.9805L4.32031 12.8514Z" fill="#F9E813"/>
<path fill-rule="evenodd" clip-rule="evenodd" d="M4.72839 12.365L4.85747 12.2112L5.01129 12.3403L4.88222 12.4941L4.72839 12.365Z" fill="#F9E813"/>
<path fill-rule="evenodd" clip-rule="evenodd" d="M4.40125 12.505L4.53032 12.3512L4.83797 12.6093L4.70889 12.7631L4.40125 12.505Z" fill="#F9E813"/>
<path fill-rule="evenodd" clip-rule="evenodd" d="M9.48206 12.0552L9.86928 12.5167L9.56163 12.7748L9.17441 12.3134L9.48206 12.0552Z" fill="#F9E813"/>
<path fill-rule="evenodd" clip-rule="evenodd" d="M9.15491 11.9153L9.86912 12.7664L9.71529 12.8955L9.00108 12.0444L9.15491 11.9153Z" fill="#060101"/>
<path fill-rule="evenodd" clip-rule="evenodd" d="M9.03186 12.0186L9.41908 12.48L9.26526 12.6091L8.87804 12.1476L9.03186 12.0186Z" fill="#F9E813"/>
<path fill-rule="evenodd" clip-rule="evenodd" d="M9.43994 12.5049L9.82716 12.9664L9.67334 13.0955L9.28612 12.634L9.43994 12.5049Z" fill="#F9E813"/>
<path fill-rule="evenodd" clip-rule="evenodd" d="M8.66272 12.3283L8.92087 12.636L8.4594 13.0232L8.20125 12.7155L8.66272 12.3283Z" fill="#F9E813"/>
<path fill-rule="evenodd" clip-rule="evenodd" d="M9.17285 12.9363L9.431 13.2439L8.96953 13.6312L8.71138 13.3235L9.17285 12.9363Z" fill="#F9E813"/>
<path fill-rule="evenodd" clip-rule="evenodd" d="M8.96875 12.6931L9.09782 12.8469L8.63635 13.2341L8.50728 13.0803L8.96875 12.6931Z" fill="#F9E813"/>
<path fill-rule="evenodd" clip-rule="evenodd" d="M8.78577 12.2251L9.49998 13.0762L9.34615 13.2053L8.63194 12.3541L8.78577 12.2251Z" fill="#060101"/>
<path fill-rule="evenodd" clip-rule="evenodd" d="M8.4165 12.5349L9.13071 13.386L8.97689 13.5151L8.26268 12.6639L8.4165 12.5349Z" fill="#060101"/>
<path fill-rule="evenodd" clip-rule="evenodd" d="M9.01074 12.2434L9.13982 12.3972L8.98599 12.5263L8.85692 12.3725L9.01074 12.2434Z" fill="#F9E813"/>
<path fill-rule="evenodd" clip-rule="evenodd" d="M9.41895 12.7298L9.54802 12.8836L9.39419 13.0127L9.26512 12.8589L9.41895 12.7298Z" fill="#F9E813"/>
<path fill-rule="evenodd" clip-rule="evenodd" d="M9.33789 12.3833L9.46696 12.5372L9.15932 12.7953L9.03024 12.6415L9.33789 12.3833Z" fill="#F9E813"/>
<path fill-rule="evenodd" clip-rule="evenodd" d="M7.46539 7.67072H6.36511V8.47194C6.36511 8.47194 6.44676 8.8857 6.91525 8.8857C7.38374 8.8857 7.46539 8.47194 7.46539 8.47194V7.67072ZM6.84133 7.992C6.84133 8.08072 6.77027 8.15264 6.6826 8.15264C6.59494 8.15264 6.52387 8.08072 6.52387 7.992C6.52387 7.90328 6.59494 7.83136 6.6826 7.83136C6.77027 7.83136 6.84133 7.90328 6.84133 7.992ZM6.6826 8.79522C6.77027 8.79522 6.84133 8.72329 6.84133 8.63457C6.84133 8.54585 6.77027 8.47393 6.6826 8.47393C6.59494 8.47393 6.52387 8.54585 6.52387 8.63457C6.52387 8.72329 6.59494 8.79522 6.6826 8.79522ZM7.31745 8.63457C7.31745 8.72329 7.24639 8.79522 7.15872 8.79522C7.07106 8.79522 6.99999 8.72329 6.99999 8.63457C6.99999 8.54585 7.07106 8.47393 7.15872 8.47393C7.24639 8.47393 7.31745 8.54585 7.31745 8.63457ZM6.92066 8.47393C7.00833 8.47393 7.07939 8.40201 7.07939 8.31329C7.07939 8.22457 7.00833 8.15264 6.92066 8.15264C6.833 8.15264 6.76193 8.22457 6.76193 8.31329C6.76193 8.40201 6.833 8.47393 6.92066 8.47393ZM7.31745 7.992C7.31745 8.08072 7.24639 8.15264 7.15872 8.15264C7.07106 8.15264 6.99999 8.08072 6.99999 7.992C6.99999 7.90328 7.07106 7.83136 7.15872 7.83136C7.24639 7.83136 7.31745 7.90328 7.31745 7.992Z" fill="#013399"/>
<path fill-rule="evenodd" clip-rule="evenodd" d="M7.46539 9.43781H6.36511V10.239C6.36511 10.239 6.44676 10.6528 6.91525 10.6528C7.38374 10.6528 7.46539 10.239 7.46539 10.239V9.43781ZM6.84133 9.75909C6.84133 9.84781 6.77027 9.91973 6.6826 9.91973C6.59494 9.91973 6.52387 9.84781 6.52387 9.75909C6.52387 9.67037 6.59494 9.59845 6.6826 9.59845C6.77027 9.59845 6.84133 9.67037 6.84133 9.75909ZM6.6826 10.5623C6.77027 10.5623 6.84133 10.4904 6.84133 10.4017C6.84133 10.3129 6.77027 10.241 6.6826 10.241C6.59494 10.241 6.52387 10.3129 6.52387 10.4017C6.52387 10.4904 6.59494 10.5623 6.6826 10.5623ZM7.31745 10.4017C7.31745 10.4904 7.24639 10.5623 7.15872 10.5623C7.07106 10.5623 6.99999 10.4904 6.99999 10.4017C6.99999 10.3129 7.07106 10.241 7.15872 10.241C7.24639 10.241 7.31745 10.3129 7.31745 10.4017ZM6.92066 10.241C7.00833 10.241 7.07939 10.1691 7.07939 10.0804C7.07939 9.99166 7.00833 9.91973 6.92066 9.91973C6.833 9.91973 6.76193 9.99166 6.76193 10.0804C6.76193 10.1691 6.833 10.241 6.92066 10.241ZM7.31745 9.75909C7.31745 9.84781 7.24639 9.91973 7.15872 9.91973C7.07106 9.91973 6.99999 9.84781 6.99999 9.75909C6.99999 9.67037 7.07106 9.59845 7.15872 9.59845C7.24639 9.59845 7.31745 9.67037 7.31745 9.75909Z" fill="#013399"/>
<path fill-rule="evenodd" clip-rule="evenodd" d="M8.89398 9.43781H7.7937V10.239C7.7937 10.239 7.87535 10.6528 8.34384 10.6528C8.81233 10.6528 8.89398 10.239 8.89398 10.239V9.43781ZM8.26992 9.75909C8.26992 9.84781 8.19886 9.91973 8.11119 9.91973C8.02353 9.91973 7.95246 9.84781 7.95246 9.75909C7.95246 9.67037 8.02353 9.59845 8.11119 9.59845C8.19886 9.59845 8.26992 9.67037 8.26992 9.75909ZM8.11119 10.5623C8.19886 10.5623 8.26992 10.4904 8.26992 10.4017C8.26992 10.3129 8.19886 10.241 8.11119 10.241C8.02353 10.241 7.95246 10.3129 7.95246 10.4017C7.95246 10.4904 8.02353 10.5623 8.11119 10.5623ZM8.74604 10.4017C8.74604 10.4904 8.67498 10.5623 8.58731 10.5623C8.49965 10.5623 8.42858 10.4904 8.42858 10.4017C8.42858 10.3129 8.49965 10.241 8.58731 10.241C8.67498 10.241 8.74604 10.3129 8.74604 10.4017ZM8.34925 10.241C8.43692 10.241 8.50798 10.1691 8.50798 10.0804C8.50798 9.99166 8.43692 9.91973 8.34925 9.91973C8.26159 9.91973 8.19052 9.99166 8.19052 10.0804C8.19052 10.1691 8.26159 10.241 8.34925 10.241ZM8.74604 9.75909C8.74604 9.84781 8.67498 9.91973 8.58731 9.91973C8.49965 9.91973 8.42858 9.84781 8.42858 9.75909C8.42858 9.67037 8.49965 9.59845 8.58731 9.59845C8.67498 9.59845 8.74604 9.67037 8.74604 9.75909Z" fill="#013399"/>
<path fill-rule="evenodd" clip-rule="evenodd" d="M6.0368 9.43781H4.93652V10.239C4.93652 10.239 5.01817 10.6528 5.48666 10.6528C5.95515 10.6528 6.0368 10.239 6.0368 10.239V9.43781ZM5.41274 9.75909C5.41274 9.84781 5.34168 9.91973 5.25401 9.91973C5.16635 9.91973 5.09528 9.84781 5.09528 9.75909C5.09528 9.67037 5.16635 9.59845 5.25401 9.59845C5.34168 9.59845 5.41274 9.67037 5.41274 9.75909ZM5.25401 10.5623C5.34168 10.5623 5.41274 10.4904 5.41274 10.4017C5.41274 10.3129 5.34168 10.241 5.25401 10.241C5.16635 10.241 5.09528 10.3129 5.09528 10.4017C5.09528 10.4904 5.16635 10.5623 5.25401 10.5623ZM5.88887 10.4017C5.88887 10.4904 5.8178 10.5623 5.73014 10.5623C5.64247 10.5623 5.57141 10.4904 5.57141 10.4017C5.57141 10.3129 5.64247 10.241 5.73014 10.241C5.8178 10.241 5.88887 10.3129 5.88887 10.4017ZM5.49208 10.241C5.57974 10.241 5.65081 10.1691 5.65081 10.0804C5.65081 9.99166 5.57974 9.91973 5.49208 9.91973C5.40441 9.91973 5.33335 9.99166 5.33335 10.0804C5.33335 10.1691 5.40441 10.241 5.49208 10.241ZM5.88887 9.75909C5.88887 9.84781 5.8178 9.91973 5.73014 9.91973C5.64247 9.91973 5.57141 9.84781 5.57141 9.75909C5.57141 9.67037 5.64247 9.59845 5.73014 9.59845C5.8178 9.59845 5.88887 9.67037 5.88887 9.75909Z" fill="#013399"/>
<path fill-rule="evenodd" clip-rule="evenodd" d="M7.46539 11.2049H6.36511V12.0061C6.36511 12.0061 6.44676 12.4198 6.91525 12.4198C7.38374 12.4198 7.46539 12.0061 7.46539 12.0061V11.2049ZM6.84133 11.5262C6.84133 11.6149 6.77027 11.6868 6.6826 11.6868C6.59494 11.6868 6.52387 11.6149 6.52387 11.5262C6.52387 11.4374 6.59494 11.3655 6.6826 11.3655C6.77027 11.3655 6.84133 11.4374 6.84133 11.5262ZM6.6826 12.3294C6.77027 12.3294 6.84133 12.2574 6.84133 12.1687C6.84133 12.08 6.77027 12.0081 6.6826 12.0081C6.59494 12.0081 6.52387 12.08 6.52387 12.1687C6.52387 12.2574 6.59494 12.3294 6.6826 12.3294ZM7.31745 12.1687C7.31745 12.2574 7.24639 12.3294 7.15872 12.3294C7.07106 12.3294 6.99999 12.2574 6.99999 12.1687C6.99999 12.08 7.07106 12.0081 7.15872 12.0081C7.24639 12.0081 7.31745 12.08 7.31745 12.1687ZM6.92066 12.0081C7.00833 12.0081 7.07939 11.9362 7.07939 11.8474C7.07939 11.7587 7.00833 11.6868 6.92066 11.6868C6.833 11.6868 6.76193 11.7587 6.76193 11.8474C6.76193 11.9362 6.833 12.0081 6.92066 12.0081ZM7.31745 11.5262C7.31745 11.6149 7.24639 11.6868 7.15872 11.6868C7.07106 11.6868 6.99999 11.6149 6.99999 11.5262C6.99999 11.4374 7.07106 11.3655 7.15872 11.3655C7.24639 11.3655 7.31745 11.4374 7.31745 11.5262Z" fill="#013399"/>
</g>
<rect x="-3" width="26.6667" height="20" rx="2" fill="url(#paint0_linear_1_2583)" style="mix-blend-mode:overlay"/>
</g>
<defs>
<linearGradient id="paint0_linear_1_2583" x1="10.3333" y1="0" x2="10.3333" y2="20" gradientUnits="userSpaceOnUse">
<stop stop-color="white" stop-opacity="0.7"/>
<stop offset="1" stop-opacity="0.3"/>
</linearGradient>
</defs>
</svg>
