<svg width="56" height="56" viewBox="0 0 56 56" fill="none" xmlns="http://www.w3.org/2000/svg">
<rect width="56" height="56" rx="20" fill="#FF9B57"/>
<path d="M20.216 33.624H22.352L22.928 29.616H25.328V27.264H23.288L23.672 24.624H25.952V22.344H24.008L24.536 18.84H22.4L21.872 22.344H19.88L20.384 18.84H18.272L17.744 22.344H15.44V24.624H17.408L17.024 27.264H14.816V29.616H16.664L16.088 33.624H18.224L18.8 29.616H20.792L20.216 33.624ZM19.544 24.624H21.536L21.152 27.264H19.16L19.544 24.624ZM35.4041 36H38.5001V32.52H40.8041V30.144H38.5001V18.84H34.4921L26.9081 31.392V32.52H35.4041V36ZM30.3161 30.144L35.4521 21.264V30.144H30.3161Z" fill="white"/>
</svg>
